<svg width="88" height="88" viewBox="0 0 88 88" fill="none" xmlns="http://www.w3.org/2000/svg">
<mask id="mask0_925_1371" style="mask-type:alpha" maskUnits="userSpaceOnUse" x="0" y="0" width="88" height="88">
<rect width="88" height="88" fill="#C4C4C4"/>
</mask>
<g mask="url(#mask0_925_1371)">
<path d="M41.8 62.15C37.2167 61.6 33.3821 59.6141 30.2962 56.1924C27.2103 52.7692 25.6674 48.7051 25.6674 44C25.6674 38.8667 27.4391 34.5275 30.9826 30.9826C34.5275 27.4391 38.8667 25.6674 44 25.6674C48.7051 25.6674 52.7692 27.1949 56.1924 30.25C59.6141 33.3051 61.6 37.1551 62.15 41.8L58.85 40.7924C58.0551 37.3091 56.298 34.4366 53.5788 32.175C50.8596 29.9134 47.6667 28.7826 44 28.7826C39.7833 28.7826 36.1929 30.2647 33.2288 33.2288C30.2647 36.1929 28.7826 39.7833 28.7826 44C28.7826 47.6667 29.9288 50.875 32.2212 53.625C34.5121 56.375 37.3692 58.1167 40.7924 58.85L41.8 62.15ZM44 77C39.4167 77 35.1237 76.1288 31.1212 74.3864C27.1187 72.6455 23.6353 70.2929 20.6712 67.3288C17.7071 64.3647 15.3545 60.8813 13.6136 56.8788C11.8712 52.8763 11 48.5833 11 44C11 39.4167 11.8712 35.1237 13.6136 31.1212C15.3545 27.1187 17.7071 23.6353 20.6712 20.6712C23.6353 17.7071 27.1187 15.3545 31.1212 13.6136C35.1237 11.8712 39.4167 11 44 11C48.5833 11 52.8763 11.8712 56.8788 13.6136C60.8813 15.3545 64.3647 17.7071 67.3288 20.6712C70.2929 23.6353 72.6455 27.1187 74.3864 31.1212C76.1288 35.1237 77 39.4167 77 44C77 44.3667 77 44.7333 77 45.1C77 45.4667 76.9692 45.8333 76.9076 46.2L73.8826 45.2826V44C73.8826 35.6884 70.9801 28.6301 65.175 22.825C59.3699 17.0199 52.3116 14.1174 44 14.1174C35.6884 14.1174 28.6301 17.0199 22.825 22.825C17.0199 28.6301 14.1174 35.6884 14.1174 44C14.1174 52.3116 17.0199 59.3699 22.825 65.175C28.6301 70.9801 35.6884 73.8826 44 73.8826H45.2826L46.2 76.9076C45.8333 76.9692 45.4667 77 45.1 77C44.7333 77 44.3667 77 44 77ZM72.4174 76.2674L54.8174 58.575L51.5174 68.8424L44 44L68.8424 51.5174L58.575 54.8174L76.2674 72.4174L72.4174 76.2674Z" fill="white"/>
</g>
</svg>
