<svg width="124" height="124" viewBox="0 0 124 124" fill="none" xmlns="http://www.w3.org/2000/svg">
<mask id="mask0_935_948" style="mask-type:alpha" maskUnits="userSpaceOnUse" x="0" y="0" width="124" height="124">
<rect width="124" height="124" fill="#C4C4C4"/>
</mask>
<g mask="url(#mask0_935_948)">
<path d="M34.2302 109.919L40.1698 96.6173C38.6198 95.584 37.1773 94.5073 35.8422 93.3871C34.5092 92.267 33.1969 90.9753 31.9052 89.5121C31.3017 89.8573 30.6776 90.0939 30.0328 90.222C29.3859 90.3522 28.7608 90.4173 28.1573 90.4173C25.7476 90.4173 23.6809 89.5555 21.9573 87.8319C20.2358 86.1104 19.375 84.0437 19.375 81.6319C19.375 80.2555 19.6974 78.9215 20.3422 77.6298C20.9891 76.3382 21.8292 75.3048 22.8625 74.5298C22.259 72.5479 21.7858 70.5236 21.4427 68.4569C21.0976 66.3903 20.925 64.2378 20.925 61.9996C20.925 59.7614 21.0976 57.609 21.4427 55.5423C21.7858 53.4757 22.259 51.409 22.8625 49.3423C21.8292 48.5673 20.9891 47.5557 20.3422 46.3074C19.6974 45.0571 19.375 43.7003 19.375 42.2371C19.375 39.9121 20.2358 37.8672 21.9573 36.1022C23.6809 34.3373 25.7476 33.4548 28.1573 33.4548C28.7608 33.4548 29.3859 33.5406 30.0328 33.7121C30.6776 33.8837 31.2583 34.0986 31.775 34.3569C34.7035 31.2569 37.9326 28.6529 41.4625 26.5449C44.9924 24.4349 48.9108 22.9055 53.2177 21.9569C53.476 19.7187 54.466 17.8463 56.1875 16.3397C57.909 14.8331 59.8465 14.0798 62 14.0798C64.1535 14.0798 66.091 14.7897 67.8125 16.2095C69.534 17.6314 70.524 19.4614 70.7823 21.6996C75.174 22.6462 79.1998 24.1528 82.8599 26.2194C86.52 28.2861 89.7708 30.9128 92.6125 34.0996C93.1292 33.8413 93.6675 33.6904 94.2276 33.647C94.7877 33.6036 95.326 33.5819 95.8427 33.5819C98.2524 33.5819 100.319 34.4437 102.043 36.1673C103.764 37.8889 104.625 39.9555 104.625 42.3673C104.625 43.8305 104.303 45.1863 103.658 46.4345C103.011 47.6828 102.127 48.6521 101.007 49.3423C101.698 51.409 102.214 53.4757 102.557 55.5423C102.902 57.609 103.075 59.7614 103.075 61.9996C103.075 64.2378 102.902 66.412 102.557 68.522C102.214 70.6321 101.698 72.6771 101.007 74.6569C102.127 75.5187 102.989 76.5738 103.593 77.822C104.194 79.0703 104.495 80.3403 104.495 81.6319C104.495 84.0437 103.634 86.1104 101.912 87.8319C100.191 89.5555 98.0809 90.4173 95.5823 90.4173C95.0656 90.4173 94.5066 90.3522 93.9052 90.222C93.3017 90.0939 92.7417 89.943 92.225 89.7694C90.9333 91.1479 89.62 92.4189 88.2849 93.5824C86.9498 94.7439 85.4649 95.7979 83.8302 96.7444L89.5125 109.919H84.9927L80.2125 98.9423C78.6625 99.7173 77.1125 100.363 75.5625 100.88C74.0125 101.396 72.4191 101.826 70.7823 102.169C70.524 104.494 69.534 106.346 67.8125 107.725C66.091 109.103 64.1535 109.792 62 109.792C59.8465 109.792 57.909 109.06 56.1875 107.594C54.466 106.131 53.476 104.281 53.2177 102.042C51.4941 101.61 49.879 101.136 48.3724 100.619C46.8658 100.103 45.3809 99.4569 43.9177 98.6819L38.75 109.919H34.2302ZM41.85 92.4819L52.4427 69.3621C51.4941 68.3288 50.8049 67.188 50.375 65.9397C49.9451 64.6915 49.7302 63.3781 49.7302 61.9996C49.7302 58.6413 50.9568 55.7562 53.4099 53.3444C55.8651 50.9347 58.7719 49.7298 62.1302 49.7298C65.4885 49.7298 68.3302 50.9347 70.6552 53.3444C72.9802 55.7562 74.1427 58.6413 74.1427 61.9996C74.1427 63.3781 73.9061 64.6915 73.4328 65.9397C72.9575 67.188 72.2899 68.3722 71.4302 69.4923L81.8927 92.7423C83.1844 91.9673 84.3892 91.0838 85.5073 90.0918C86.6274 89.1019 87.7042 88.0479 88.7375 86.9298C88.134 86.2396 87.6608 85.4429 87.3177 84.5397C86.9726 83.6345 86.8 82.6653 86.8 81.6319C86.8 79.0486 87.8333 76.8528 89.9 75.0444C91.9667 73.2361 94.2917 72.5479 96.875 72.9798C97.4785 71.2562 97.9311 69.4903 98.2328 67.6819C98.5325 65.8736 98.6823 63.9795 98.6823 61.9996C98.6823 59.933 98.5325 58.0172 98.2328 56.2522C97.9311 54.4873 97.5219 52.743 97.0052 51.0194C94.4219 51.5361 92.1175 50.8903 90.0922 49.0819C88.0689 47.2736 87.0573 45.0354 87.0573 42.3673C87.0573 41.334 87.2299 40.3864 87.575 39.5246C87.9201 38.6628 88.351 37.8444 88.8677 37.0694C86.3691 34.3146 83.5491 32.0547 80.4078 30.2897C77.2644 28.5248 73.8844 27.168 70.2677 26.2194C69.6642 27.7694 68.6309 29.0828 67.1677 30.1595C65.7024 31.2363 63.9799 31.7746 62 31.7746C60.0201 31.7746 58.2976 31.2363 56.8323 30.1595C55.3691 29.0828 54.3792 27.7694 53.8625 26.2194C50.0743 27.168 46.6302 28.5248 43.5302 30.2897C40.4302 32.0547 37.6309 34.358 35.1323 37.1996C35.7358 37.8878 36.1884 38.6845 36.4901 39.5897C36.7918 40.4929 36.9427 41.3753 36.9427 42.2371C36.9427 45.1656 35.866 47.4472 33.7125 49.0819C31.559 50.7187 29.2774 51.3646 26.8677 51.0194C26.351 52.6562 25.9418 54.3788 25.6401 56.1871C25.3384 57.9955 25.1875 59.933 25.1875 61.9996C25.1875 63.9795 25.3384 65.8736 25.6401 67.6819C25.9418 69.4903 26.351 71.2562 26.8677 72.9798C29.2774 72.5479 31.559 73.1937 33.7125 74.9173C35.866 76.6389 36.9427 78.8771 36.9427 81.6319C36.9427 82.6653 36.7918 83.6128 36.4901 84.4746C36.1884 85.3364 35.7358 86.068 35.1323 86.6694C36.1656 87.8764 37.2207 88.9314 38.2974 89.8345C39.3741 90.7397 40.5583 91.6222 41.85 92.4819ZM45.3375 94.6798C46.6292 95.2812 47.9642 95.8403 49.3427 96.3569C50.7191 96.8736 52.2257 97.3045 53.8625 97.6496C54.466 96.0996 55.4776 94.7863 56.8974 93.7095C58.3193 92.6328 60.0201 92.0944 62 92.0944C63.9799 92.0944 65.7024 92.6328 67.1677 93.7095C68.6309 94.7863 69.6642 96.0996 70.2677 97.6496C71.7309 97.3045 73.13 96.917 74.4651 96.4871C75.8002 96.0573 77.0701 95.5406 78.275 94.9371L68.3302 72.3319C67.3816 72.9354 66.3689 73.4097 65.2922 73.7548C64.2175 74.0979 63.0767 74.2694 61.8698 74.2694C60.7517 74.2694 59.6326 74.0762 58.5125 73.6897C57.3924 73.3012 56.3156 72.7628 55.2823 72.0746L45.3375 94.6798ZM62 69.8798C64.0667 69.8798 65.875 69.1255 67.425 67.6168C68.975 66.1102 69.75 64.2378 69.75 61.9996C69.75 59.8462 68.975 57.9944 67.425 56.4444C65.875 54.8944 64.0667 54.1194 62 54.1194C59.7618 54.1194 57.8894 54.8944 56.3828 56.4444C54.8741 57.9944 54.1198 59.8462 54.1198 61.9996C54.1198 64.2378 54.8741 66.1102 56.3828 67.6168C57.8894 69.1255 59.7618 69.8798 62 69.8798Z" fill="#E1A83F"/>
</g>
</svg>
