<svg width="24" height="24" viewBox="0 0 24 24" fill="none" xmlns="http://www.w3.org/2000/svg">
<mask id="mask0_933_776" style="mask-type:alpha" maskUnits="userSpaceOnUse" x="0" y="0" width="24" height="25">
<rect y="0.000244141" width="24" height="24" fill="#C4C4C4"/>
</mask>
<g mask="url(#mask0_933_776)">
<path d="M4.4502 19.0006C4.0502 19.0006 3.7084 18.8588 3.4248 18.5752C3.1416 18.292 3 17.9504 3 17.5504V6.45044C3 6.05044 3.1416 5.70884 3.4248 5.42564C3.7084 5.14204 4.0502 5.00024 4.4502 5.00024H19.5498C19.9498 5.00024 20.2916 5.14204 20.5752 5.42564C20.8584 5.70884 21 6.05044 21 6.45044V17.5504C21 17.9504 20.8584 18.292 20.5752 18.5752C20.2916 18.8588 19.9498 19.0006 19.5498 19.0006H4.4502ZM12 11.9506L3.8502 6.52544V17.5504C3.8502 17.7172 3.9084 17.8588 4.0248 17.9752C4.1416 18.092 4.2834 18.1504 4.4502 18.1504H19.5498C19.7166 18.1504 19.8584 18.092 19.9752 17.9752C20.0916 17.8588 20.1498 17.7172 20.1498 17.5504V6.52544L12 11.9506ZM12 10.9756L19.8252 5.85044H4.2L12 10.9756ZM3.8502 17.5504C3.8502 17.7172 3.9084 17.8588 4.0248 17.9752C4.1416 18.092 4.2834 18.1504 4.4502 18.1504H3.8502C3.8502 18.1504 3.8502 18.092 3.8502 17.9752C3.8502 17.8588 3.8502 17.7172 3.8502 17.5504Z" fill="black"/>
</g>
</svg>
