<svg width="24" height="24" viewBox="0 0 24 24" fill="none" xmlns="http://www.w3.org/2000/svg">
<mask id="mask0_933_1086" style="mask-type:alpha" maskUnits="userSpaceOnUse" x="0" y="0" width="24" height="24">
<rect width="24" height="24" fill="#D9D9D9"/>
</mask>
<g mask="url(#mask0_933_1086)">
<path d="M21 12L16.65 18.15C16.4667 18.4167 16.2293 18.625 15.938 18.775C15.646 18.925 15.3333 19 15 19H5C4.45 19 3.979 18.8043 3.587 18.413C3.19567 18.021 3 17.55 3 17V7C3 6.45 3.19567 5.97933 3.587 5.588C3.979 5.196 4.45 5 5 5H15C15.3333 5 15.646 5.075 15.938 5.225C16.2293 5.375 16.4667 5.58333 16.65 5.85L21 12ZM18.55 12L15 7H5V17H15L18.55 12Z" fill="white"/>
</g>
</svg>
