<svg width="465" height="423" viewBox="0 0 465 423" fill="none" xmlns="http://www.w3.org/2000/svg">
<g clip-path="url(#clip0_925_1485)">
<path d="M402.482 358.415H61.377V300.516H66.639V257.421C66.6505 247.268 70.6897 237.533 77.8707 230.354C85.0516 223.174 94.7877 219.135 104.943 219.124H359.535C369.69 219.136 379.426 223.174 386.607 230.354C393.788 237.533 397.828 247.268 397.839 257.421V300.516H402.482V358.415Z" fill="#E4E4E4"/>
<path d="M411.724 422.14H394.744V421.831C394.727 406.816 388.753 392.421 378.134 381.803C367.515 371.186 353.117 365.214 338.099 365.197H125.759C110.742 365.214 96.3437 371.186 85.7245 381.803C75.1052 392.421 69.1319 406.816 69.1149 421.831V422.14H52.1344C48.2658 422.136 44.5568 420.598 41.8212 417.863C39.0857 415.128 37.5469 411.419 37.5426 407.551V312.907C32.6117 310.121 28.6012 294.994 31.2062 282.913C32.841 275.331 37.5604 266.175 50.7598 265.608C63.6089 265.056 73.1462 277.116 73.9981 288.726C74.4598 294.836 72.6651 300.902 68.9539 305.777H69.1149V319.279C96.9782 310.352 124.881 305.809 152.054 305.777C179.86 305.804 207.473 310.399 233.789 319.378C288.504 301.684 342.653 301.34 394.744 318.358V305.777H394.905C391.193 300.902 389.399 294.836 389.86 288.726C390.795 275.992 401.213 265.621 413.085 265.608H413.125C427.124 265.608 432.075 274.034 433.764 281.107C436.753 293.623 431.266 310.098 426.316 312.906V407.551C426.312 411.419 424.773 415.128 422.037 417.863C419.302 420.598 415.593 422.136 411.724 422.14Z" fill="#CACACA"/>
<path d="M316.856 396.814L325.052 402.668L351.537 373.846L339.439 365.206L316.856 396.814Z" fill="#FFB6B6"/>
<path d="M316.677 392.646L318.984 394.294L330.607 397.065L332.818 404.174L332.819 404.175C335.547 406.123 337.389 409.076 337.94 412.382C338.491 415.689 337.706 419.079 335.757 421.806L335.518 422.141L309.09 403.265L316.677 392.646Z" fill="#E1A83F"/>
<path d="M372.398 319.648H312.215C306.602 319.645 301.221 317.414 297.254 313.445C293.287 309.476 291.058 304.095 291.058 298.484C291.058 292.873 293.287 287.491 297.254 283.523C301.221 279.554 306.602 277.323 312.215 277.32H372.398C378.012 277.32 383.396 279.55 387.366 283.519C391.336 287.488 393.566 292.871 393.566 298.484C393.566 304.097 391.336 309.48 387.366 313.449C383.396 317.418 378.012 319.648 372.398 319.648Z" fill="#2F2E41"/>
<path d="M342.871 171.864L352.578 179.254L364.285 182.851C364.285 182.851 369.125 250.918 373.486 255.278C377.847 259.638 373.914 259.756 374.79 265.42C375.667 271.084 377.797 282.695 377.797 282.695C348.36 298.274 322.982 298.692 302.598 280.461C302.337 279.334 302.47 278.151 302.973 277.109C303.477 276.066 304.322 275.228 305.368 274.732C309.162 272.719 301.871 263.325 304.971 261.754C308.072 260.183 303.711 246.558 303.711 246.558L306.572 218.129L304.311 213.585L309.827 185.778L319.398 182.284L323.221 173.074L342.871 171.864Z" fill="#E1A83F"/>
<path d="M348.952 108.314C348.909 109.544 349.135 110.767 349.616 111.9C350.097 113.032 350.82 114.045 351.734 114.868C352.649 115.69 353.733 116.302 354.91 116.661C356.087 117.019 357.328 117.115 358.546 116.942L372.227 143.529L379.849 129.989L365.689 106.817C365.262 104.791 364.107 102.991 362.442 101.759C360.777 100.527 358.718 99.9489 356.655 100.133C354.592 100.318 352.669 101.253 351.249 102.76C349.829 104.268 349.012 106.244 348.952 108.314H348.952Z" fill="#FFB6B6"/>
<path d="M371.992 114.818L401.335 160.289L401.239 160.498C401.128 160.738 394.483 175.086 388.044 188.229C387.053 190.252 386.066 192.248 385.109 194.159C384.696 194.983 384.289 195.791 383.889 196.581C381.184 201.911 378.822 206.317 377.411 208.409C374.292 213.141 369.647 216.663 364.249 218.392L364.114 218.427L363.984 218.373C361.344 217.259 359.162 215.279 357.798 212.759C356.435 210.238 355.971 207.329 356.483 204.51C359.028 190.912 364.699 178.092 373.05 167.061L377.807 160.792L361.275 124.857L371.992 114.818Z" fill="#E1A83F"/>
<path d="M321.294 102.744C321.338 103.973 321.111 105.197 320.631 106.329C320.15 107.461 319.427 108.474 318.512 109.297C317.597 110.12 316.513 110.732 315.337 111.09C314.16 111.448 312.918 111.544 311.7 111.371L298.02 137.958L290.397 124.418L304.558 101.247C304.984 99.2202 306.139 97.4205 307.804 96.1887C309.469 94.9568 311.528 94.3783 313.591 94.5628C315.654 94.7474 317.578 95.6821 318.997 97.1899C320.417 98.6977 321.234 100.674 321.294 102.744H321.294Z" fill="#FFB6B6"/>
<path d="M298.255 109.248L268.911 154.718L269.008 154.928C269.119 155.167 275.764 169.516 282.202 182.658C283.194 184.682 284.18 186.677 285.137 188.588C285.55 189.413 285.957 190.22 286.358 191.01C289.062 196.34 291.425 200.746 292.835 202.839C295.955 207.57 300.599 211.093 305.997 212.821L306.133 212.856L306.263 212.802C308.903 211.688 311.085 209.708 312.448 207.188C313.812 204.668 314.276 201.758 313.764 198.939C311.219 185.341 305.547 172.521 297.197 161.49L292.44 155.221L308.971 119.287L298.255 109.248Z" fill="#E1A83F"/>
<path d="M332.933 167.75C343.538 167.75 352.135 159.155 352.135 148.552C352.135 137.949 343.538 129.354 332.933 129.354C322.328 129.354 313.731 137.949 313.731 148.552C313.731 159.155 322.328 167.75 332.933 167.75Z" fill="#FFB6B6"/>
<path d="M317.293 132.059C318.872 127.466 326.733 124.28 339.476 123.837C352.22 123.394 355.452 138.409 355.452 138.409C363.959 145.309 346.368 163.782 345.517 163.117L345.9 159.646C346.533 153.897 349.226 149.412 345.802 143.421L342.513 143.458L336.277 144.657C335.888 144.732 335.486 144.677 335.132 144.5C334.777 144.324 334.491 144.036 334.317 143.68C334.142 143.325 334.09 142.922 334.167 142.534C334.244 142.146 334.447 141.794 334.744 141.532L334.801 141.482L334.66 141.263C332.463 142.27 330.199 143.205 327.797 143.346C325.095 143.505 322.141 142.43 320.847 140.053C320.501 139.399 320.29 138.683 320.226 137.947C316.582 139.403 314.916 143.894 314.916 143.894C314.916 143.894 315.714 136.652 317.293 132.059Z" fill="#2F2E41"/>
<path d="M369.152 388.648L361.465 395.155L332.7 368.607L344.045 359.002L369.152 388.648Z" fill="#FFB6B6"/>
<path d="M377.422 394.438L352.636 415.422L352.37 415.109C350.204 412.55 349.143 409.236 349.42 405.896C349.697 402.555 351.29 399.462 353.848 397.295L353.849 397.295L355.468 390.027L366.824 386.31L368.988 384.478L377.422 394.438Z" fill="#E1A83F"/>
<path d="M321.645 315.24L327.999 301.463C327.927 288.897 317.407 278.692 304.863 279.479C297.877 279.918 291.336 283.824 288.634 295.435C281.684 325.29 349.873 387.419 349.873 387.419L362.402 379.677L362.98 371.499L355.963 367.175L355.956 360.199L349.265 357.026L321.645 315.24Z" fill="#2F2E41"/>
<path d="M363.387 311.446L355.534 299.9C354.571 287.371 364.217 276.335 376.783 276.088C383.781 275.951 390.621 279.307 394.27 290.656C403.651 319.839 340.803 387.363 340.803 387.363L327.679 380.677L326.431 372.574L333.068 367.687L332.501 360.735L338.908 357.023L363.387 311.446Z" fill="#2F2E41"/>
<path d="M335.744 216.895V220.584H323.511V216.895H327.3V208.007L323.759 210.037V206.051L329.206 202.956H331.93V216.895L335.744 216.895Z" fill="white"/>
<path d="M338.505 218.48C337.341 216.929 336.759 214.684 336.759 211.746C336.759 208.857 337.341 206.642 338.505 205.098C339.123 204.372 339.892 203.79 340.758 203.39C341.624 202.99 342.566 202.783 343.519 202.783C344.473 202.783 345.415 202.99 346.281 203.39C347.147 203.79 347.915 204.372 348.534 205.098C349.698 206.642 350.28 208.857 350.28 211.746C350.28 214.684 349.698 216.928 348.534 218.48C347.918 219.209 347.15 219.795 346.284 220.197C345.418 220.599 344.474 220.807 343.519 220.807C342.565 220.807 341.621 220.599 340.755 220.197C339.889 219.795 339.121 219.209 338.505 218.48ZM345.228 216.016C345.646 214.633 345.822 213.189 345.748 211.746C345.82 210.331 345.644 208.915 345.228 207.561C345.122 207.19 344.897 206.864 344.589 206.632C344.281 206.4 343.905 206.274 343.519 206.274C343.133 206.274 342.758 206.4 342.45 206.632C342.142 206.864 341.917 207.19 341.811 207.561C341.394 208.915 341.218 210.331 341.291 211.746C341.217 213.189 341.393 214.633 341.811 216.016C341.914 216.39 342.137 216.72 342.446 216.954C342.755 217.189 343.132 217.316 343.519 217.316C343.907 217.316 344.284 217.189 344.593 216.954C344.901 216.72 345.125 216.39 345.228 216.016Z" fill="white"/>
<path d="M205.29 412.343L195.897 412.343L191.428 376.118L205.292 376.119L205.29 412.343Z" fill="#A0616A"/>
<path d="M205.621 422.141L176.736 422.139V421.774C176.736 418.793 177.921 415.934 180.029 413.826C182.137 411.718 184.997 410.534 187.979 410.534H187.979L193.256 406.531L203.1 410.534L205.621 410.534L205.621 422.141Z" fill="#E1A83F"/>
<path d="M271.752 412.343L281.145 412.343L285.613 376.118L271.75 376.119L271.752 412.343Z" fill="#A0616A"/>
<path d="M271.421 422.141L300.306 422.139V421.774C300.306 418.793 299.122 415.934 297.013 413.826C294.905 411.718 292.045 410.534 289.064 410.534H289.063L283.787 406.531L273.942 410.534L271.421 410.534L271.421 422.141Z" fill="#E1A83F"/>
<path d="M191.015 349.499C191.154 347.432 192.257 336.001 192.257 336.001L194.899 311.759L199.555 247.498L199.859 243.291L224.251 238.609L240.922 230.619L260.737 236.952L276.166 242.736C276.166 242.736 276.192 245.213 276.311 248.204C276.47 252.12 276.747 256.921 277.408 258.169C278.511 260.375 278.233 272.216 278.233 272.216C278.233 272.216 279.33 296.306 280.71 298.947C282.091 301.589 282.368 307.09 281.952 308.193C281.536 309.295 283.332 338.226 283.332 338.226C283.332 338.226 287.943 389.424 285.05 397.143C282.157 404.863 271.226 399.806 271.226 399.806C271.226 399.806 271.754 397.746 268.584 396.775C265.413 395.804 255.757 323.21 255.757 323.21C255.757 323.21 253.96 308.325 252.309 304.059C250.658 299.793 249.139 287.807 249.139 287.807C249.139 287.807 238.941 267.969 238.808 263.558C238.808 263.558 237.474 259.431 236.213 263.974C234.951 268.517 231.233 279.4 231.233 279.4L227.606 292.766L223.34 312.736L220.579 329.549C220.579 329.549 216.444 351.863 215.784 352.827C215.123 353.791 215.784 374.177 215.784 374.177C215.784 374.177 212.587 391.538 208.069 394.569C203.551 397.601 191.582 394.618 191.582 394.618C191.582 394.618 190.876 351.566 191.015 349.499Z" fill="#2F2E41"/>
<path d="M201.421 176.257L206.844 190.453L200.153 197.376L203.099 200.011L200.926 203.737L195.258 242.784L226.328 253.025L236.79 241.624L245.04 253.025L280.991 245.391L271.823 195.596V192.341L269.234 186.056V172.749L281.123 133.139L255.667 126.927L245.912 120.217L242.755 129.654L229.314 127.576L228.963 120.487L218.679 128.931L204.968 131.078L194.598 133.139L193.277 136.009L195.919 135.435L200.543 172.778L201.421 176.257Z" fill="#2F2E41"/>
<path d="M222.329 137.927L228.964 120.527L245.912 120.217L251.536 137.927L271.75 250.829C271.75 250.829 209.822 268.072 210.45 247.345C211.111 225.553 214.091 196.605 214.091 196.605L222.329 137.927Z" fill="#E1A83F"/>
<path d="M237.059 115.66C248.085 115.66 257.024 106.723 257.024 95.6988C257.024 84.6744 248.085 75.7373 237.059 75.7373C226.032 75.7373 217.094 84.6744 217.094 95.6988C217.094 106.723 226.032 115.66 237.059 115.66Z" fill="#A0616A"/>
<path d="M215.916 81.218C219.167 77.6808 223.232 71.2061 235.547 68.4872C250.763 65.1275 257.953 78.8709 254.116 79.0962C265.336 82.4934 258.128 105.709 254.912 103.762C254.884 103.743 254.857 103.722 254.832 103.7C253.102 102.426 251.65 100.813 250.565 98.9595C249.479 97.1057 248.783 95.0501 248.519 92.9183L247.908 87.4245C247.821 91.8944 243.252 92.4857 238.583 90.8395C238.859 89.8595 239.386 88.9683 240.112 88.254C240.837 87.5397 241.737 87.0269 242.721 86.7661C239.866 89.3998 236.149 91.2838 230.956 91.8842C231.594 89.4178 232.863 87.6023 234.851 86.5261L234.667 86.3452C232.764 87.7927 230.782 89.1839 228.494 89.8394C225.921 90.5768 222.838 90.1779 221.074 88.1639C220.6 87.6081 220.241 86.9628 220.02 86.2662C220.401 89.8061 218.026 93.847 216.181 93.1532C214.647 92.855 213.752 83.5727 215.916 81.218Z" fill="#2F2E41"/>
<path d="M261.676 94.5982L279.833 125.141L293.254 118.803C293.254 118.803 270.129 89.9255 269.392 89.0947C269.707 87.6911 269.589 86.2247 269.053 84.8897C268.517 83.5547 267.588 82.4138 266.389 81.6181C265.191 80.8224 263.778 80.4092 262.34 80.4334C260.901 80.4575 259.504 80.9178 258.332 81.7532C257.161 82.5887 256.271 83.7601 255.78 85.1124C255.289 86.4646 255.22 87.9341 255.582 89.3263C255.945 90.7186 256.721 91.9681 257.809 92.9094C258.897 93.8508 260.246 94.4397 261.676 94.5982Z" fill="#A0616A"/>
<path d="M270.467 170.498L298.647 150.201C300.485 148.877 302.027 147.183 303.174 145.229C304.32 143.276 305.047 141.104 305.306 138.853C305.566 136.603 305.352 134.323 304.68 132.16C304.008 129.996 302.892 127.997 301.403 126.289L281.123 103.029L272.288 114.999L279.098 129.235L265.912 132.711L270.467 170.498Z" fill="#2F2E41"/>
<path d="M222.1 97.469L203.943 128.011L190.522 121.674C190.522 121.674 213.647 92.7962 214.384 91.9654C214.069 90.5618 214.187 89.0955 214.723 87.7604C215.259 86.4254 216.188 85.2846 217.387 84.4888C218.585 83.6931 219.997 83.28 221.436 83.3041C222.875 83.3282 224.272 83.7885 225.444 84.624C226.615 85.4595 227.505 86.6308 227.996 87.9831C228.487 89.3354 228.556 90.8048 228.194 92.1971C227.831 93.5893 227.055 94.8388 225.967 95.7801C224.879 96.7215 223.53 97.3104 222.1 97.469Z" fill="#A0616A"/>
<path d="M213.309 173.369L185.129 153.072C183.291 151.747 181.749 150.054 180.602 148.1C179.456 146.146 178.729 143.975 178.47 141.724C178.21 139.474 178.424 137.194 179.096 135.03C179.768 132.867 180.884 130.867 182.373 129.16L202.653 105.9L211.488 117.87L204.678 132.106L217.864 135.582L213.309 173.369Z" fill="#2F2E41"/>
<path d="M241.819 167.686C242.456 168.438 242.791 169.4 242.76 170.385C242.782 171.36 242.467 172.313 241.869 173.083C241.223 173.88 240.371 174.483 239.405 174.829C237.071 175.637 234.533 175.637 232.199 174.829C231.233 174.484 230.381 173.88 229.735 173.083C229.137 172.313 228.822 171.36 228.843 170.385C228.811 169.388 229.146 168.415 229.784 167.649C230.483 166.872 231.411 166.339 232.434 166.126C231.537 165.848 230.738 165.32 230.131 164.603C229.572 163.925 229.273 163.069 229.289 162.19C229.272 161.267 229.574 160.366 230.144 159.639C230.755 158.883 231.559 158.306 232.471 157.968C234.624 157.193 236.98 157.193 239.132 157.968C240.045 158.306 240.849 158.883 241.46 159.639C242.03 160.366 242.332 161.267 242.315 162.19C242.33 163.086 242.027 163.959 241.46 164.653C240.872 165.367 240.082 165.889 239.194 166.151C240.206 166.382 241.122 166.918 241.819 167.686ZM237.734 171.449C237.972 171.296 238.167 171.082 238.297 170.83C238.427 170.578 238.489 170.297 238.476 170.013C238.483 169.726 238.421 169.442 238.297 169.184C238.172 168.926 237.987 168.701 237.758 168.528C237.234 168.02 236.532 167.735 235.802 167.735C235.072 167.735 234.37 168.02 233.846 168.528C233.617 168.701 233.432 168.925 233.307 169.184C233.182 169.442 233.121 169.726 233.128 170.013C233.115 170.297 233.177 170.578 233.307 170.83C233.437 171.082 233.632 171.296 233.87 171.449C234.462 171.774 235.127 171.944 235.802 171.944C236.477 171.944 237.142 171.774 237.734 171.449ZM234.23 161.335C234.023 161.502 233.859 161.716 233.754 161.96C233.648 162.204 233.603 162.469 233.623 162.734C233.623 163.824 234.349 164.55 235.802 164.913C237.254 164.55 237.981 163.824 237.981 162.734C238.001 162.469 237.956 162.204 237.85 161.96C237.744 161.716 237.581 161.502 237.374 161.335C236.905 161.036 236.359 160.877 235.802 160.877C235.245 160.877 234.699 161.036 234.229 161.335H234.23Z" fill="white"/>
<path d="M18.6221 108.966C19.055 109.606 19.6231 110.143 20.2862 110.54C20.9493 110.937 21.6913 111.184 22.46 111.263C23.2288 111.342 24.0055 111.251 24.7355 110.998C25.4654 110.744 26.1309 110.333 26.685 109.795L43.4704 118.226L42.3268 108.534L26.5625 102.013C25.5959 101.142 24.3435 100.656 23.0425 100.647C21.7415 100.638 20.4823 101.107 19.5036 101.964C18.5248 102.821 17.8945 104.007 17.732 105.297C17.5696 106.588 17.8863 107.893 18.6221 108.966Z" fill="#9E616A"/>
<path d="M88.0625 148.088L79.7049 142.325C79.7049 142.325 70.1344 141.676 68.695 138.634C67.2556 135.592 67.013 136.615 65.4785 136.251C63.944 135.887 63.1522 131.309 60.58 131.849C54.7929 133.064 27.5765 115.083 30.5139 112.836L32.6974 103.631C35.0045 104.492 37.4099 105.063 39.8581 105.329C43.5598 105.667 52.2812 109.895 53.5731 111.282C54.8649 112.669 57.1534 112.131 60.2223 112.859C63.2912 113.586 64.3653 118.522 69.4553 117.209C76.617 115.361 113.72 132.956 117.735 134.598C122.14 136.401 125.217 141.774 125.217 141.774L124.004 146.888L88.0625 148.088Z" fill="#E1A83F"/>
<path d="M148.379 409.522H155.662L159.129 381.432H148.378L148.379 409.522Z" fill="#9E616A"/>
<path d="M146.001 404.534L157.638 403.84V408.825L168.702 416.464C169.248 416.842 169.66 417.384 169.876 418.011C170.093 418.639 170.103 419.319 169.906 419.953C169.708 420.587 169.313 421.141 168.778 421.535C168.243 421.928 167.596 422.141 166.932 422.14H153.078L150.69 417.21L149.757 422.14H144.534L146.001 404.534Z" fill="#E1A83F"/>
<path d="M57.0845 403.335L63.8521 406.029L77.4635 381.212L67.4755 377.237L57.0845 403.335Z" fill="#9E616A"/>
<path d="M56.7213 397.822L67.7901 401.48L65.9461 406.111L73.3994 417.3C73.7676 417.853 73.9494 418.509 73.9185 419.172C73.8875 419.835 73.6452 420.471 73.2271 420.987C72.809 421.503 72.237 421.872 71.5944 422.039C70.9519 422.207 70.2725 422.165 69.6555 421.919L56.7835 416.796L56.3888 411.332L53.6985 415.569L48.8452 413.637L56.7213 397.822Z" fill="#E1A83F"/>
<path d="M133.696 325.936L121.55 269.263L102.583 332.231L72.5495 391.941L72.3904 392.258L62.877 387.137C61.5344 362.892 64.7231 340.173 76.3859 320.306L81.9086 265.777C82.0778 263.914 86.1974 220.172 99.2418 212.415L103.062 203.706L141.057 194.324L141.196 194.48C144.849 198.585 147.263 203.643 148.156 209.066L159.509 277.832L159.516 277.871L156.471 325.843L160.636 396.618H145.568C136.247 379.083 132.29 355.522 133.696 325.936Z" fill="#2F2E41"/>
<path d="M166.404 88.2528C166.983 88.7643 167.443 89.3967 167.751 90.1052C168.059 90.8137 168.208 91.5811 168.188 92.3535C168.167 93.1259 167.978 93.8843 167.632 94.5755C167.287 95.2667 166.794 95.8737 166.189 96.3539L172.393 114.081L162.926 111.701L158.486 95.2316C157.747 94.1613 157.426 92.857 157.584 91.5658C157.742 90.2747 158.369 89.0864 159.345 88.2262C160.32 87.366 161.578 86.8936 162.879 86.8985C164.18 86.9034 165.434 87.3852 166.404 88.2528H166.404Z" fill="#9E616A"/>
<path d="M91.8623 222.157C90.8391 222.157 90.2579 221.956 90.0328 221.526C89.7026 220.895 90.2757 220.07 90.9391 219.114C91.4019 218.448 92.7537 217.125 92.0889 217.043C82.0097 215.813 86.848 153.682 91.2161 145.469C92.1036 143.8 91.1646 141.24 92.164 138.408C94.8942 130.675 98.6207 128.298 106.045 123.563C106.647 123.179 107.275 122.777 107.927 122.359C108.771 121.817 108.724 120.019 108.674 118.115C108.619 115.999 108.562 113.811 109.599 112.443L109.666 112.354L109.775 112.328C112.283 111.749 120.717 110.673 125.712 112.336L125.781 112.36L125.833 112.411C127.019 113.597 127.127 115.895 127.232 118.117C127.318 119.942 127.399 121.664 128.07 122.413C133.202 128.132 139.023 128.021 139.082 128.019L139.37 128.011L139.399 128.298C142.997 135.145 140.18 160.575 142.681 176.371C145.222 192.419 166.922 206.08 148.341 208.506C148.381 208.568 148.403 208.639 148.405 208.713C148.407 208.786 148.389 208.859 148.353 208.923C147.231 211.02 95.719 222.157 91.8623 222.157Z" fill="#E1A83F"/>
<path d="M175.861 143.901L165.548 149.016C145.675 156.649 135.288 154.79 130.07 151.888C124.503 148.792 123.537 144.045 123.499 143.845L123.496 143.748L124.768 133.673C124.93 132.393 125.362 131.162 126.035 130.062C126.709 128.962 127.608 128.017 128.675 127.291C129.741 126.565 130.949 126.073 132.22 125.85C133.491 125.626 134.794 125.675 136.045 125.993L159.772 132.03L159.339 120.514L160.277 116.368L158.546 111.328L159.256 101.205L167.766 99.1228L176.694 115.11L175.09 119.523L176.601 121.719L176.598 121.821L175.861 143.901Z" fill="#E1A83F"/>
<path d="M124.122 151.98V155.446L116.446 169.608H111.494L119.145 155.669H111.023V151.98L124.122 151.98Z" fill="white"/>
<path d="M420.404 422.771L44.5959 423C44.4377 422.999 44.2861 422.906 44.1744 422.74C44.0627 422.574 44 422.349 44 422.114C44 421.88 44.0627 421.655 44.1744 421.489C44.2861 421.323 44.4377 421.229 44.5959 421.229L420.404 421C420.562 421.001 420.714 421.094 420.826 421.26C420.937 421.426 421 421.651 421 421.886C421 422.12 420.937 422.345 420.826 422.511C420.714 422.677 420.562 422.771 420.404 422.771Z" fill="#CACACA"/>
<path d="M320.356 65.5936C326.059 53.472 321.444 39.3019 313.205 35.4273C304.965 31.5527 291.106 37.0356 285.403 49.1572C280.125 60.3773 284.057 73.5189 290.824 78.3065C290.71 78.34 290.604 78.395 290.511 78.4685L288.885 79.8075C288.761 79.9096 288.665 80.0416 288.607 80.1911C288.548 80.3406 288.529 80.5026 288.55 80.6617C288.572 80.8208 288.634 80.9717 288.73 81.1001C288.827 81.2285 288.955 81.3301 289.101 81.3953L293.202 83.2175C293.349 83.2827 293.51 83.3093 293.67 83.2948C293.83 83.2803 293.984 83.2252 294.116 83.1347C294.249 83.0442 294.356 82.9212 294.428 82.7776C294.5 82.634 294.534 82.4744 294.526 82.314L294.43 80.2099C294.426 80.1367 294.412 80.0643 294.39 79.9943C302.402 82.1956 315.067 76.8381 320.356 65.5936Z" fill="#CCCCCC"/>
<path d="M315.686 48.2088C316.98 51.9635 316.783 56.0718 315.135 59.6856C313.488 63.2994 310.516 66.1429 306.832 67.629C305.993 67.9782 306.663 69.223 307.496 68.876C311.444 67.2318 314.624 64.1561 316.399 60.2658C318.173 56.3755 318.411 51.9582 317.065 47.8998C316.78 47.0438 315.399 47.3464 315.686 48.2088Z" fill="white"/>
<path d="M420.401 106.21C431.939 99.4013 436.104 85.0927 431.476 77.2527C426.848 69.4127 412.306 66.1433 400.768 72.952C390.088 79.2544 385.938 92.3287 388.835 100.095C388.722 100.058 388.603 100.044 388.485 100.052L386.387 100.244C386.227 100.258 386.074 100.313 385.941 100.404C385.809 100.495 385.701 100.618 385.63 100.761C385.558 100.905 385.524 101.065 385.532 101.225C385.539 101.385 385.587 101.541 385.672 101.678L388.036 105.492C388.12 105.629 388.238 105.741 388.379 105.819C388.519 105.897 388.677 105.938 388.837 105.938C388.998 105.938 389.156 105.897 389.296 105.818C389.436 105.74 389.554 105.627 389.638 105.49L390.744 103.698C390.781 103.634 390.811 103.567 390.832 103.497C396.215 109.826 409.698 112.526 420.401 106.21Z" fill="#E1A83F"/>
<path d="M426.33 89.213C425.286 93.0447 422.81 96.3293 419.413 98.3887C416.017 100.448 411.959 101.125 408.078 100.28C407.188 100.096 407.04 101.502 407.925 101.685C412.113 102.548 416.473 101.796 420.131 99.5792C423.788 97.3628 426.472 93.8459 427.644 89.7339C427.891 88.8662 426.579 88.3388 426.33 89.213Z" fill="white"/>
<path d="M346.959 50.5346C345.506 47.3365 344.831 43.8397 344.99 40.3306C345.15 36.8215 346.138 33.4001 347.875 30.3468C348.371 29.4867 348.864 28.4454 349.95 28.2801C350.36 28.2055 350.783 28.2722 351.151 28.4693C351.518 28.6665 351.808 28.9824 351.973 29.3655C352.118 29.8751 352.091 30.4184 351.897 30.9114C351.703 31.4044 351.352 31.8199 350.898 32.0936C350.444 32.3674 349.913 32.4843 349.386 32.4263C348.859 32.3683 348.366 32.1386 347.983 31.7727C345.924 30.1143 346.185 27.1956 346.383 24.8462C346.835 19.4928 346.828 13.8725 344.55 8.88988C342.442 4.27988 338.139 0.423906 332.943 0.00278268C332.034 -0.0708727 331.983 1.34149 332.887 1.41479C338.041 1.83246 342.073 6.07753 343.786 10.7236C344.754 13.5207 345.235 16.4628 345.209 19.4224C345.226 20.9414 345.156 22.4604 345.038 23.9746C344.861 25.4507 344.814 26.9397 344.9 28.424C345.142 30.8464 346.608 33.4436 349.228 33.8307C351.672 34.1918 354.058 31.6357 353.397 29.2067C353.238 28.6816 352.951 28.2043 352.561 27.8175C352.172 27.4307 351.693 27.1466 351.166 26.9906C350.64 26.8346 350.083 26.8116 349.546 26.9236C349.009 27.0357 348.508 27.2793 348.088 27.6326C347.17 28.3988 346.573 29.7148 346.05 30.7663C344.469 33.93 343.617 37.408 343.559 40.9442C343.501 44.4804 344.236 47.9846 345.712 51.1988C346.1 52.0221 347.346 51.3558 346.959 50.5346L346.959 50.5346Z" fill="#CCCCCC"/>
<path d="M133.617 116.4C133.085 115.429 132.169 112.65 131.141 112.687C130.09 112.733 129.037 112.643 128.008 112.421C127.897 112.402 127.786 112.377 127.68 112.352C123.339 111.269 118.888 110.688 114.414 110.619C110.805 110.57 106.843 111.003 104.323 113.584C101.803 116.165 102.175 121.488 105.648 122.472C94.0416 124.482 82.1109 121.837 72.441 115.113C66.2937 110.793 61.3659 105.005 56.1534 99.5958C50.9409 94.18 45.1959 88.9746 38.1695 86.3255C31.137 83.6702 22.5381 84.0416 16.8737 88.987C9.96488 95.0156 9.43249 105.389 9.4263 114.556C9.42011 117.985 10.4911 117.261 13.5183 118.876C16.3289 120.374 19.2818 123.456 20.9967 120.776C22.7115 118.096 23.0148 114.785 23.3677 111.622C23.7143 108.459 24.2282 105.129 26.2339 102.66C29.6821 98.4136 36.4733 98.3703 41.2339 101.063C45.9945 103.755 49.1951 108.465 52.2224 113.021C55.2496 117.57 58.444 122.293 63.1984 125.004C69.4448 128.563 77.2883 128.037 83.8071 131.07C87.9487 133.001 91.2978 136.238 94.7336 139.24C98.1756 142.242 101.946 145.132 106.409 146.104C110.866 147.082 116.159 145.609 118.351 141.604C120.326 137.983 119.36 133.347 121.118 129.609C122.474 126.725 125.241 124.812 127.736 122.819C128.764 121.996 129.03 124.831 129.903 123.828C132.422 123.326 134.787 118.536 133.617 116.4Z" fill="#3F3D56"/>
<path d="M116.259 111.279C127.062 111.279 135.82 102.523 135.82 91.7216C135.82 80.9202 127.062 72.1639 116.259 72.1639C105.456 72.1639 96.6978 80.9202 96.6978 91.7216C96.6978 102.523 105.456 111.279 116.259 111.279Z" fill="#2F2E41"/>
<path d="M117.834 112.894C125.594 112.674 131.708 106.205 131.488 98.4461C131.268 90.6868 124.798 84.5748 117.037 84.7947C109.277 85.0145 103.164 91.4829 103.383 99.2423C103.603 107.002 110.073 113.114 117.834 112.894Z" fill="#9E616A"/>
<path d="M117.571 77.4092L111.873 77.5706C108.281 77.6753 104.878 79.2002 102.41 81.8106C99.9423 84.4211 98.611 87.9039 98.7086 91.4947L98.7122 91.6209L98.816 91.686C101.913 93.735 105.569 94.775 109.282 94.6631L109.602 94.6541L112.751 94.5114C113.281 93.1479 113.458 91.6728 113.266 90.2226C113.741 91.5973 114.113 93.0058 114.376 94.4362L128.504 93.7931C129.326 93.7524 130.1 93.3922 130.66 92.7892C131.22 92.1863 131.523 91.3884 131.503 90.5657C131.397 86.9751 129.87 83.5733 127.258 81.1067C124.646 78.6401 121.163 77.3103 117.571 77.4092Z" fill="#2F2E41"/>
<path d="M106.215 73.8824C104.929 75.4682 102.864 76.129 101.008 76.9879C97.7342 78.536 94.8872 80.8592 92.7141 83.7561C90.541 86.6531 89.1075 90.0362 88.5379 93.6123C88.1006 96.5243 88.2536 99.5216 87.5133 102.369C86.7779 105.217 84.8371 108.045 81.9532 108.618C80.0016 109.008 78.0143 108.307 76.1486 107.612C75.1225 107.233 74.0964 106.852 73.0703 106.47C74.0532 103.785 75.0346 101.101 76.0143 98.4162C74.3898 100.97 72.4834 103.332 70.3309 105.46C66.6537 104.097 62.9732 102.734 59.2896 101.372C68.2511 101.152 66.4756 92.4985 68.233 83.7158C69.199 78.8896 78.4898 75.377 80.2002 70.7629C81.1242 68.2604 82.7459 66.0749 84.8734 64.465C87.0009 62.8552 89.5451 61.8885 92.205 61.6792C94.8649 61.47 97.5291 62.027 99.8822 63.2844C102.235 64.5418 104.179 66.4468 105.483 68.7741C107.343 69.4548 107.478 72.3167 106.215 73.8824Z" fill="#2F2E41"/>
<path d="M107.112 79.6988C111.134 79.6988 114.396 76.4383 114.396 72.4162C114.396 68.3941 111.134 65.1335 107.112 65.1335C103.089 65.1335 99.8276 68.3941 99.8276 72.4162C99.8276 76.4383 103.089 79.6988 107.112 79.6988Z" fill="#2F2E41"/>
</g>
<defs>
<clipPath id="clip0_925_1485">
<rect width="465" height="423" fill="white"/>
</clipPath>
</defs>
</svg>
