<svg width="124" height="124" viewBox="0 0 124 124" fill="none" xmlns="http://www.w3.org/2000/svg">
<mask id="mask0_935_956" style="mask-type:alpha" maskUnits="userSpaceOnUse" x="0" y="0" width="124" height="124">
<rect width="124" height="124" fill="#C4C4C4"/>
</mask>
<g mask="url(#mask0_935_956)">
<path d="M58.9 87.575C52.4417 86.8 47.0384 84.0017 42.6901 79.1802C38.3418 74.3566 36.1677 68.6299 36.1677 62C36.1677 54.7667 38.6642 48.6524 43.6573 43.6573C48.6524 38.6642 54.7667 36.1677 62 36.1677C68.6299 36.1677 74.3566 38.3201 79.1802 42.625C84.0017 46.9299 86.8 52.3549 87.575 58.9L82.925 57.4802C81.8049 52.5719 79.329 48.5243 75.4974 45.3375C71.6658 42.1507 67.1667 40.5573 62 40.5573C56.0583 40.5573 50.9991 42.6457 46.8224 46.8224C42.6457 50.9991 40.5573 56.0583 40.5573 62C40.5573 67.1667 42.1724 71.6875 45.4026 75.5625C48.6307 79.4375 52.6566 81.8917 57.4802 82.925L58.9 87.575ZM62 108.5C55.5417 108.5 49.4925 107.272 43.8526 104.817C38.2127 102.364 33.3043 99.0491 29.1276 94.8724C24.9509 90.6957 21.6359 85.7873 19.1828 80.1474C16.7276 74.5075 15.5 68.4583 15.5 62C15.5 55.5417 16.7276 49.4925 19.1828 43.8526C21.6359 38.2127 24.9509 33.3043 29.1276 29.1276C33.3043 24.9509 38.2127 21.6359 43.8526 19.1828C49.4925 16.7276 55.5417 15.5 62 15.5C68.4583 15.5 74.5075 16.7276 80.1474 19.1828C85.7873 21.6359 90.6957 24.9509 94.8724 29.1276C99.0491 33.3043 102.364 38.2127 104.817 43.8526C107.272 49.4925 108.5 55.5417 108.5 62C108.5 62.5167 108.5 63.0333 108.5 63.55C108.5 64.0667 108.457 64.5833 108.37 65.1L104.107 63.8073V62C104.107 50.2882 100.017 40.3424 91.8375 32.1625C83.6576 23.9826 73.7118 19.8927 62 19.8927C50.2882 19.8927 40.3424 23.9826 32.1625 32.1625C23.9826 40.3424 19.8927 50.2882 19.8927 62C19.8927 73.7118 23.9826 83.6576 32.1625 91.8375C40.3424 100.017 50.2882 104.107 62 104.107H63.8073L65.1 108.37C64.5833 108.457 64.0667 108.5 63.55 108.5C63.0333 108.5 62.5167 108.5 62 108.5ZM102.043 107.468L77.2427 82.5375L72.5927 97.0052L62 62L97.0052 72.5927L82.5375 77.2427L107.468 102.043L102.043 107.468Z" fill="#E1A83F"/>
</g>
</svg>
