<svg width="124" height="124" viewBox="0 0 124 124" fill="none" xmlns="http://www.w3.org/2000/svg">
<mask id="mask0_935_980" style="mask-type:alpha" maskUnits="userSpaceOnUse" x="0" y="0" width="124" height="124">
<rect width="124" height="124" fill="#2C1C00"/>
</mask>
<g mask="url(#mask0_935_980)">
<path d="M104.494 68.5875C102.686 68.5875 101.136 67.9417 99.8441 66.65C98.5524 65.3584 97.9066 63.8084 97.9066 62C97.9066 60.1917 98.5524 58.6417 99.8441 57.35C101.136 56.0584 102.686 55.4125 104.494 55.4125C106.302 55.4125 107.852 56.0584 109.144 57.35C110.436 58.6417 111.082 60.1917 111.082 62C111.082 63.8084 110.436 65.3584 109.144 66.65C107.852 67.9417 106.302 68.5875 104.494 68.5875ZM19.5045 68.5875C17.6962 68.5875 16.1462 67.9417 14.8545 66.65C13.5628 65.3584 12.917 63.8084 12.917 62C12.917 60.1917 13.5628 58.6417 14.8545 57.35C16.1462 56.0584 17.6962 55.4125 19.5045 55.4125C21.3128 55.4125 22.8628 56.0584 24.1545 57.35C25.4462 58.6417 26.092 60.1917 26.092 62C26.092 63.8084 25.4462 65.3584 24.1545 66.65C22.8628 67.9417 21.3128 68.5875 19.5045 68.5875ZM61.9993 111.082C60.191 111.082 58.641 110.436 57.3493 109.145C56.0576 107.853 55.4118 106.303 55.4118 104.495C55.4118 102.686 56.0576 101.136 57.3493 99.8448C58.641 98.5532 60.191 97.9073 61.9993 97.9073C63.8076 97.9073 65.3576 98.5532 66.6493 99.8448C67.941 101.136 68.5868 102.686 68.5868 104.495C68.5868 106.303 67.941 107.853 66.6493 109.145C65.3576 110.436 63.8076 111.082 61.9993 111.082ZM79.8243 47.1448L76.7243 43.9177L95.7118 25.1875L98.8118 28.2875L79.8243 47.1448ZM44.1743 47.0177L25.317 28.2875L28.5441 25.1875L47.2743 43.9177L44.1743 47.0177ZM95.7118 98.5552L76.8545 79.825L79.9545 76.5948L98.8118 95.4552L95.7118 98.5552ZM28.2868 98.6823L25.1868 95.4552L44.0441 76.5948L47.1441 79.825L28.2868 98.6823ZM61.9993 26.0927C60.191 26.0927 58.641 25.4469 57.3493 24.1552C56.0576 22.8636 55.4118 21.3136 55.4118 19.5052C55.4118 17.6969 56.0576 16.1469 57.3493 14.8552C58.641 13.5636 60.191 12.9177 61.9993 12.9177C63.8076 12.9177 65.3576 13.5636 66.6493 14.8552C67.941 16.1469 68.5868 17.6969 68.5868 19.5052C68.5868 21.3136 67.941 22.8636 66.6493 24.1552C65.3576 25.4469 63.8076 26.0927 61.9993 26.0927Z" fill="#E1A83F"/>
</g>
</svg>
