<svg width="124" height="124" viewBox="0 0 124 124" fill="none" xmlns="http://www.w3.org/2000/svg">
<mask id="mask0_935_964" style="mask-type:alpha" maskUnits="userSpaceOnUse" x="0" y="0" width="124" height="124">
<rect width="124" height="124" fill="#D9D9D9"/>
</mask>
<g mask="url(#mask0_935_964)">
<path d="M61.0948 108.5C54.8101 108.328 48.8901 107.015 43.3349 104.56C37.7818 102.107 32.9592 98.7918 28.8672 94.6151C24.7773 90.4384 21.5274 85.5517 19.1177 79.9552C16.7059 74.3566 15.5 68.3715 15.5 62C15.5 55.5417 16.7276 49.4925 19.1828 43.8526C21.6359 38.2127 24.9509 33.3043 29.1276 29.1276C33.3043 24.9509 38.2127 21.6359 43.8526 19.1828C49.4925 16.7276 55.5417 15.5 62 15.5C74.1417 15.5 84.5825 19.5042 93.3224 27.5125C102.062 35.5208 107.036 45.4233 108.243 57.2198H103.85C102.988 49.4698 100.254 42.4948 95.6474 36.2948C91.0408 30.0948 85.0774 25.5316 77.7573 22.6052V25.0573C77.7573 27.9858 76.7457 30.4833 74.7224 32.55C72.6991 34.6167 70.2233 35.65 67.2948 35.65H56.7052V46.2427C56.7052 47.7059 56.1885 48.9325 55.1552 49.9224C54.1219 50.9123 52.8726 51.4073 51.4073 51.4073H40.9448V62H51.6677V77.6302H46.2427L20.925 52.4427C20.6667 53.9927 20.43 55.5644 20.2151 57.1578C20.0002 58.7491 19.8927 60.3632 19.8927 62C19.8927 73.3667 23.8535 83.1616 31.775 91.3849C39.6965 99.6082 49.4698 103.849 61.0948 104.107V108.5ZM108.887 106.82L90.8052 88.9948C89.2552 90.1149 87.5543 90.9974 85.7026 91.6422C83.8509 92.2891 81.9774 92.6125 80.0823 92.6125C75.174 92.6125 70.9983 90.8899 67.5552 87.4448C64.1101 84.0017 62.3875 79.826 62.3875 74.9177C62.3875 70.0094 64.1101 65.8326 67.5552 62.3875C70.9983 58.9424 75.174 57.2198 80.0823 57.2198C84.9906 57.2198 89.1674 58.9424 92.6125 62.3875C96.0576 65.8326 97.7802 70.0094 97.7802 74.9177C97.7802 76.8976 97.4568 78.8351 96.8099 80.7302C96.1651 82.6233 95.1969 84.3448 93.9052 85.8948L111.987 103.72L108.887 106.82ZM80.0823 88.2198C83.7858 88.2198 86.9292 86.9281 89.5125 84.3448C92.0958 81.7615 93.3875 78.6191 93.3875 74.9177C93.3875 71.2142 92.0958 68.0708 89.5125 65.4875C86.9292 62.9042 83.7858 61.6125 80.0823 61.6125C76.3809 61.6125 73.2385 62.9042 70.6552 65.4875C68.0719 68.0708 66.7802 71.2142 66.7802 74.9177C66.7802 78.6191 68.0719 81.7615 70.6552 84.3448C73.2385 86.9281 76.3809 88.2198 80.0823 88.2198Z" fill="#E1A83F"/>
</g>
</svg>
