<svg width="124" height="124" viewBox="0 0 124 124" fill="none" xmlns="http://www.w3.org/2000/svg">
<mask id="mask0_935_988" style="mask-type:alpha" maskUnits="userSpaceOnUse" x="0" y="0" width="124" height="124">
<rect width="124" height="124" fill="#C4C4C4"/>
</mask>
<g mask="url(#mask0_935_988)">
<path d="M81.1178 61.7427C73.3678 55.1976 66.9094 48.9976 61.7428 43.1427C56.5761 37.2858 53.9928 31.9466 53.9928 27.125C53.9928 23.4216 55.2627 20.2782 57.8027 17.6948C60.3426 15.1115 63.5067 13.8198 67.2949 13.8198C69.6199 13.8198 71.9883 14.5091 74.4001 15.8875C76.8119 17.266 79.0511 19.3327 81.1178 22.0875C83.1844 19.3327 85.4226 17.266 87.8324 15.8875C90.2442 14.5091 92.6126 13.8198 94.9376 13.8198C98.7258 13.8198 101.891 15.1115 104.433 17.6948C106.973 20.2782 108.243 23.4216 108.243 27.125C108.243 31.9466 105.659 37.2858 100.493 43.1427C95.3261 48.9976 88.8678 55.1976 81.1178 61.7427ZM81.1178 55.6698C87.1442 50.59 92.4607 45.5308 97.0673 40.4922C101.676 35.4558 103.98 30.9566 103.98 26.9948C103.98 24.4983 103.14 22.411 101.46 20.7328C99.7818 19.0526 97.6511 18.2125 95.0678 18.2125C93.5178 18.2125 91.8593 18.6434 90.0923 19.5052C88.3273 20.365 86.3692 22.2157 84.2178 25.0573L81.1178 29.0625L77.8876 25.0573C75.8209 22.2157 73.8834 20.365 72.0751 19.5052C70.2667 18.6434 68.6733 18.2125 67.2949 18.2125C64.6268 18.2125 62.4744 19.0526 60.8376 20.7328C59.2008 22.411 58.3824 24.4983 58.3824 26.9948C58.3824 30.9566 60.665 35.4558 65.2303 40.4922C69.7935 45.5308 75.0893 50.59 81.1178 55.6698ZM70.7824 108.757L30.2251 96.875V103.593H10.5928V63.2927H43.1428L74.5303 74.9177C76.3386 75.5191 77.8669 76.6382 79.1152 78.275C80.3634 79.9118 80.9876 82.2368 80.9876 85.25H97.9074C100.749 85.25 102.924 86.2834 104.433 88.35C105.939 90.4167 106.693 93.2584 106.693 96.875V97.65L70.7824 108.757ZM14.8553 99.2H25.8324V67.6823H14.8553V99.2ZM70.3949 104.238L102.17 94.55C101.998 93 101.547 91.7941 100.815 90.9323C100.084 90.0726 99.1143 89.6427 97.9074 89.6427H72.9803C70.74 89.6427 68.4574 89.4702 66.1324 89.125C63.8074 88.7799 61.7841 88.349 60.0626 87.8323L49.6001 84.475L51.4074 80.0823L60.8376 83.4427C62.8174 84.1309 64.8841 84.6042 67.0376 84.8625C69.191 85.1209 72.3344 85.25 76.4678 85.25C76.4678 83.6132 76.1877 82.2782 75.6277 81.2448C75.0676 80.2115 74.2275 79.4799 73.1074 79.05L42.4949 67.6823H30.2251V92.225L70.3949 104.238Z" fill="#E1A83F"/>
</g>
</svg>
