<svg width="88" height="88" viewBox="0 0 88 88" fill="none" xmlns="http://www.w3.org/2000/svg">
<mask id="mask0_925_1402" style="mask-type:alpha" maskUnits="userSpaceOnUse" x="0" y="0" width="88" height="88">
<rect width="88" height="88" fill="#C4C4C4"/>
</mask>
<g mask="url(#mask0_925_1402)">
<path d="M24.2924 78.0074L28.5076 68.5672C27.4076 67.8339 26.3839 67.0697 25.4364 66.2748C24.4904 65.4799 23.5591 64.5632 22.6424 63.5248C22.2141 63.7697 21.7712 63.9376 21.3136 64.0286C20.8545 64.121 20.4109 64.1672 19.9826 64.1672C18.2725 64.1672 16.8058 63.5556 15.5826 62.3324C14.3609 61.1106 13.75 59.644 13.75 57.9324C13.75 56.9556 13.9788 56.0089 14.4364 55.0922C14.8955 54.1755 15.4917 53.4422 16.225 52.8922C15.7967 51.4856 15.4609 50.0491 15.2174 48.5824C14.9725 47.1157 14.85 45.5882 14.85 43.9998C14.85 42.4114 14.9725 40.8839 15.2174 39.4172C15.4609 37.9505 15.7967 36.4839 16.225 35.0172C15.4917 34.4672 14.8955 33.7493 14.4364 32.8634C13.9788 31.9761 13.75 31.0132 13.75 29.9748C13.75 28.3248 14.3609 26.8735 15.5826 25.621C16.8058 24.3685 18.2725 23.7422 19.9826 23.7422C20.4109 23.7422 20.8545 23.8031 21.3136 23.9248C21.7712 24.0465 22.1833 24.1991 22.55 24.3824C24.6283 22.1824 26.9199 20.3344 29.425 18.8384C31.9301 17.3409 34.7109 16.2556 37.7674 15.5824C37.9507 13.994 38.6533 12.6652 39.875 11.596C41.0967 10.5268 42.4717 9.99219 44 9.99219C45.5283 9.99219 46.9033 10.496 48.125 11.5036C49.3467 12.5127 50.0493 13.8114 50.2326 15.3998C53.3493 16.0715 56.2063 17.1407 58.8038 18.6074C61.4013 20.0741 63.7083 21.9382 65.725 24.1998C66.0917 24.0165 66.4737 23.9094 66.8712 23.8786C67.2687 23.8478 67.6507 23.8324 68.0174 23.8324C69.7275 23.8324 71.1942 24.444 72.4174 25.6672C73.6391 26.8889 74.25 28.3556 74.25 30.0672C74.25 31.1056 74.0212 32.0677 73.5636 32.9536C73.1045 33.8395 72.4775 34.5273 71.6826 35.0172C72.1725 36.4839 72.5391 37.9505 72.7826 39.4172C73.0275 40.8839 73.15 42.4114 73.15 43.9998C73.15 45.5882 73.0275 47.1311 72.7826 48.6286C72.5391 50.1261 72.1725 51.5773 71.6826 52.9824C72.4775 53.594 73.0891 54.3427 73.5174 55.2286C73.9442 56.1145 74.1576 57.0157 74.1576 57.9324C74.1576 59.644 73.5467 61.1106 72.325 62.3324C71.1033 63.5556 69.6058 64.1672 67.8326 64.1672C67.4659 64.1672 67.0692 64.121 66.6424 64.0286C66.2141 63.9376 65.8167 63.8306 65.45 63.7074C64.5333 64.6856 63.6013 65.5877 62.6538 66.4134C61.7063 67.2376 60.6525 67.9856 59.4924 68.6574L63.525 78.0074H60.3174L56.925 70.2172C55.825 70.7672 54.725 71.2255 53.625 71.5922C52.525 71.9588 51.3942 72.2639 50.2326 72.5074C50.0493 74.1574 49.3467 75.4715 48.125 76.4498C46.9033 77.428 45.5283 77.9172 44 77.9172C42.4717 77.9172 41.0967 77.3972 39.875 76.3574C38.6533 75.319 37.9507 74.0056 37.7674 72.4172C36.5442 72.1106 35.398 71.774 34.3288 71.4074C33.2596 71.0407 32.2058 70.5824 31.1674 70.0324L27.5 78.0074H24.2924ZM29.7 65.6324L37.2174 49.2248C36.5442 48.4915 36.0551 47.6819 35.75 46.796C35.4449 45.9101 35.2924 44.9781 35.2924 43.9998C35.2924 41.6165 36.1629 39.569 37.9038 37.8574C39.6462 36.1473 41.7091 35.2922 44.0924 35.2922C46.4757 35.2922 48.4924 36.1473 50.1424 37.8574C51.7924 39.569 52.6174 41.6165 52.6174 43.9998C52.6174 44.9781 52.4495 45.9101 52.1136 46.796C51.7763 47.6819 51.3025 48.5223 50.6924 49.3172L58.1174 65.8172C59.0341 65.2672 59.8891 64.6402 60.6826 63.9362C61.4775 63.2337 62.2417 62.4856 62.975 61.6922C62.5467 61.2023 62.2109 60.6369 61.9674 59.996C61.7225 59.3536 61.6 58.6657 61.6 57.9324C61.6 56.0991 62.3333 54.5407 63.8 53.2574C65.2667 51.9741 66.9167 51.4856 68.75 51.7922C69.1783 50.569 69.4995 49.3157 69.7136 48.0324C69.9263 46.7491 70.0326 45.4049 70.0326 43.9998C70.0326 42.5331 69.9263 41.1735 69.7136 39.921C69.4995 38.6685 69.2091 37.4306 68.8424 36.2074C67.0091 36.5741 65.3737 36.1157 63.9364 34.8324C62.5005 33.5491 61.7826 31.9607 61.7826 30.0672C61.7826 29.3339 61.9051 28.6614 62.15 28.0498C62.3949 27.4382 62.7007 26.8574 63.0674 26.3074C61.2942 24.3523 59.2929 22.7485 57.0636 21.496C54.8328 20.2435 52.4341 19.2806 49.8674 18.6074C49.4391 19.7074 48.7058 20.6395 47.6674 21.4036C46.6275 22.1677 45.4051 22.5498 44 22.5498C42.5949 22.5498 41.3725 22.1677 40.3326 21.4036C39.2942 20.6395 38.5917 19.7074 38.225 18.6074C35.5366 19.2806 33.0924 20.2435 30.8924 21.496C28.6924 22.7485 26.7058 24.3831 24.9326 26.3998C25.3609 26.8882 25.6821 27.4536 25.8962 28.096C26.1103 28.7369 26.2174 29.3632 26.2174 29.9748C26.2174 32.0531 25.4533 33.6723 23.925 34.8324C22.3967 35.994 20.7775 36.4523 19.0674 36.2074C18.7007 37.369 18.4103 38.5915 18.1962 39.8748C17.9821 41.1581 17.875 42.5331 17.875 43.9998C17.875 45.4049 17.9821 46.7491 18.1962 48.0324C18.4103 49.3157 18.7007 50.569 19.0674 51.7922C20.7775 51.4856 22.3967 51.944 23.925 53.1672C25.4533 54.3889 26.2174 55.9773 26.2174 57.9324C26.2174 58.6657 26.1103 59.3382 25.8962 59.9498C25.6821 60.5614 25.3609 61.0806 24.9326 61.5074C25.6659 62.3639 26.4147 63.1127 27.1788 63.7536C27.9429 64.396 28.7833 65.0223 29.7 65.6324ZM32.175 67.1922C33.0917 67.619 34.0391 68.0157 35.0174 68.3824C35.9942 68.7491 37.0634 69.0548 38.225 69.2998C38.6533 68.1998 39.3712 67.2677 40.3788 66.5036C41.3879 65.7394 42.5949 65.3574 44 65.3574C45.4051 65.3574 46.6275 65.7394 47.6674 66.5036C48.7058 67.2677 49.4391 68.1998 49.8674 69.2998C50.9058 69.0548 51.8987 68.7799 52.8462 68.4748C53.7937 68.1697 54.6949 67.8031 55.55 67.3748L48.4924 51.3324C47.8192 51.7607 47.1005 52.0973 46.3364 52.3422C45.5737 52.5857 44.7641 52.7074 43.9076 52.7074C43.1141 52.7074 42.3199 52.5703 41.525 52.296C40.7301 52.0203 39.9659 51.6382 39.2326 51.1498L32.175 67.1922ZM44 49.5922C45.4667 49.5922 46.75 49.0569 47.85 47.9862C48.95 46.917 49.5 45.5882 49.5 43.9998C49.5 42.4715 48.95 41.1574 47.85 40.0574C46.75 38.9574 45.4667 38.4074 44 38.4074C42.4116 38.4074 41.0828 38.9574 40.0136 40.0574C38.9429 41.1574 38.4076 42.4715 38.4076 43.9998C38.4076 45.5882 38.9429 46.917 40.0136 47.9862C41.0828 49.0569 42.4116 49.5922 44 49.5922Z" fill="white"/>
</g>
</svg>
