<svg width="19" height="19" viewBox="0 0 19 19" fill="none" xmlns="http://www.w3.org/2000/svg">
<path d="M8.45822 13.4324L13.3694 8.08108L12.6749 7.2973L8.45822 11.8919L6.32506 9.56757L5.63055 10.3514L8.45822 13.4324ZM9.5 19C8.39208 19 7.35857 18.7748 6.39948 18.3243C5.44038 17.8739 4.60134 17.2569 3.88235 16.4735C3.1627 15.6894 2.59617 14.7748 2.18277 13.7297C1.76936 12.6847 1.56266 11.5586 1.56266 10.3514C1.56266 9.14414 1.76936 8.01802 2.18277 6.97297C2.59617 5.92793 3.1627 5.01333 3.88235 4.22919C4.60134 3.44577 5.44038 2.82883 6.39948 2.37838C7.35857 1.92793 8.39208 1.7027 9.5 1.7027C10.6079 1.7027 11.6414 1.92793 12.6005 2.37838C13.5596 2.82883 14.399 3.44577 15.1186 4.22919C15.8376 5.01333 16.4038 5.92793 16.8172 6.97297C17.2306 8.01802 17.4373 9.14414 17.4373 10.3514C17.4373 11.5586 17.2306 12.6847 16.8172 13.7297C16.4038 14.7748 15.8376 15.6894 15.1186 16.4735C14.399 17.2569 13.5596 17.8739 12.6005 18.3243C11.6414 18.7748 10.6079 19 9.5 19ZM0.694517 4.54054L0 3.75676L3.44778 0L4.1671 0.756757L0.694517 4.54054ZM18.3055 4.54054L14.8329 0.756757L15.5522 0L19 3.75676L18.3055 4.54054ZM9.5 17.9189C11.4182 17.9189 13.0553 17.1802 14.4112 15.7027C15.7672 14.2252 16.4452 12.4414 16.4452 10.3514C16.4452 8.26126 15.7672 6.47748 14.4112 5C13.0553 3.52252 11.4182 2.78378 9.5 2.78378C7.58181 2.78378 5.94473 3.52252 4.58877 5C3.23281 6.47748 2.55483 8.26126 2.55483 10.3514C2.55483 12.4414 3.23281 14.2252 4.58877 15.7027C5.94473 17.1802 7.58181 17.9189 9.5 17.9189Z" fill="#E1A83F"/>
</svg>
