<svg width="188" height="30" viewBox="0 0 188 30" fill="none" xmlns="http://www.w3.org/2000/svg">
<g clip-path="url(#clip0_925_1348)">
<path fill-rule="evenodd" clip-rule="evenodd" d="M16.8169 9.82864C15.984 10.5604 15.9245 11.8062 16.6582 12.6566C16.6781 12.6764 16.6781 12.6764 16.6781 12.6764C17.4713 13.4872 18.7207 13.507 19.5338 12.7555C20.3468 11.9644 20.3667 10.7186 19.6131 9.90775C18.8992 9.09694 17.63 9.07716 16.8169 9.82864ZM12.335 12.973C11.5219 13.764 10.2329 13.7047 9.47932 12.8939C8.68607 12.0831 8.74557 10.7977 9.55865 10.0462C10.3717 9.2947 11.6608 9.31447 12.4143 10.1253C13.1679 10.8965 13.1481 12.182 12.335 12.973ZM13.0093 16.7898C13.9017 17.739 15.4287 17.7983 16.3806 16.9084L16.4004 16.8886C17.392 15.9592 17.4118 14.4562 16.4797 13.4674C15.5477 12.4786 14.0405 12.4588 13.0688 13.3883C12.1169 14.3178 12.0772 15.801 12.9894 16.7502C12.9696 16.77 12.9696 16.7898 13.0093 16.7898ZM9.22152 17.0271C8.42827 17.7785 8.38861 19.0442 9.14219 19.8155L9.16202 19.8352C9.95527 20.6263 11.2046 20.6658 11.9979 19.9143C12.7911 19.1629 12.8308 17.8972 12.0772 17.1259L12.0574 17.1062C11.3236 16.3151 10.0941 16.2756 9.28101 16.9677C9.24135 16.9875 9.24135 16.9875 9.22152 17.0271ZM19.5139 20.5076C18.7207 21.2591 17.4713 21.2393 16.6781 20.4483C16.6781 20.4483 16.6781 20.4483 16.6582 20.4285C15.9046 19.6375 15.9046 18.4114 16.6781 17.6599C16.6979 17.6401 16.6979 17.6401 16.7376 17.6006C17.5308 16.8491 18.7802 16.8689 19.5338 17.6599L19.5536 17.6797C20.3468 18.5103 20.3072 19.7561 19.5139 20.5076ZM5.11645 1.36457C4.89831 1.10748 4.89831 0.751519 5.13629 0.533984C5.39409 0.276898 5.79072 0.276898 6.02869 0.514208C6.2865 0.771294 6.24683 1.18659 6.00886 1.44367H5.98903C5.75105 1.64143 5.35443 1.60188 5.11645 1.36457ZM23.5793 0.632863C23.857 0.415329 24.2536 0.435105 24.4717 0.692191C24.6899 0.949277 24.6899 1.30524 24.4519 1.52278C24.2338 1.77986 23.7975 1.77986 23.5595 1.56233C23.3017 1.34479 23.3017 0.909726 23.5397 0.672415C23.5595 0.652639 23.5595 0.652639 23.5793 0.632863ZM1.44768 2.37314C1.18987 2.03695 1.22953 1.58211 1.527 1.32502C1.8443 1.06793 2.32025 1.10748 2.55823 1.40412C2.81603 1.72054 2.77637 2.13583 2.49873 2.41269C2.2211 2.68955 1.76498 2.66978 1.44768 2.37314ZM27.3473 1.83919C27.6249 1.56233 28.1008 1.56233 28.3785 1.81942C28.6561 2.09628 28.6561 2.5709 28.3983 2.84776C28.3785 2.86754 28.3785 2.86754 28.3785 2.86754C28.1008 3.18395 27.6249 3.20373 27.3473 2.92686C27.03 2.65 27.0101 2.17538 27.2878 1.89852C27.2878 1.89852 27.3473 1.85897 27.3473 1.83919ZM21.0211 2.47202C21.3384 2.19516 21.8143 2.19516 22.0523 2.4918C22.3696 2.76866 22.3696 3.28283 22.0722 3.57947C21.7945 3.89588 21.2789 3.89588 20.9814 3.59924C20.9616 3.53992 20.9616 3.53992 20.9616 3.53992C20.684 3.2235 20.7236 2.74888 21.0211 2.47202ZM7.45654 3.61902C7.1789 3.28283 7.19873 2.80821 7.53586 2.53135C7.85316 2.25449 8.28945 2.25448 8.56709 2.55112C8.88439 2.82799 8.88439 3.34216 8.58692 3.6388C8.30928 3.95521 7.79367 3.95521 7.4962 3.6388C7.47637 3.65857 7.45654 3.61902 7.45654 3.61902ZM3.62911 5.49773C3.21266 5.02311 3.23249 4.27162 3.70844 3.81678C4.18439 3.36193 4.93797 3.40149 5.39409 3.83655C5.85021 4.31118 5.81055 5.06266 5.37426 5.5175C4.83882 5.97235 4.08523 5.95257 3.62911 5.49773ZM24.1941 4.01454C24.67 3.59924 25.4236 3.61902 25.8797 4.09364C26.3557 4.54849 26.3557 5.29997 25.8996 5.77459C25.4435 6.24921 24.6899 6.24921 24.2139 5.79437C24.1941 5.77459 24.1941 5.77459 24.1544 5.71526C23.7181 5.24064 23.738 4.48916 24.1941 4.01454ZM17.7688 4.62759C18.2447 4.15297 18.9785 4.17274 19.4544 4.64737C19.4544 4.66714 19.4544 4.66714 19.4743 4.66714C19.9502 5.12199 19.9502 5.87347 19.4941 6.34809C19.038 6.82271 18.2844 6.82271 17.8084 6.36787C17.7886 6.34809 17.7886 6.34809 17.7489 6.28876C17.3325 5.85369 17.3325 5.14176 17.7688 4.62759ZM9.95527 6.5063C9.49916 6.03168 9.53882 5.28019 9.9751 4.80557C10.4511 4.35073 11.2046 4.39028 11.6608 4.82535C12.1169 5.29997 12.0772 6.05145 11.6409 6.5063C11.1451 6.96114 10.3916 6.96114 9.95527 6.5063ZM0.237973 6.11078C0.0198296 5.85369 0.0198296 5.49773 0.257804 5.28019C0.51561 5.02311 0.912235 5.00333 1.15021 5.26042C1.40802 5.5175 1.40802 5.91302 1.15021 6.15033L1.13038 6.17011C0.892403 6.38764 0.495779 6.36787 0.237973 6.11078ZM28.319 5.49773C28.5768 5.28019 28.9338 5.28019 29.1519 5.5175C29.4097 5.77459 29.4097 6.17011 29.1519 6.40742C28.8941 6.66451 28.4975 6.66451 28.2595 6.40742C28.0017 6.15033 28.0017 5.75481 28.2595 5.5175C28.2992 5.49773 28.319 5.49773 28.319 5.49773ZM6.50464 8.99806C5.9097 8.34545 5.9692 7.37644 6.58396 6.76338C7.19873 6.17011 8.19029 6.20966 8.74557 6.82271C8.74557 6.82271 8.74557 6.82271 8.7654 6.84249C9.36034 7.45554 9.36034 8.44433 8.74557 9.07716C8.1308 9.63089 7.11941 9.63089 6.50464 8.99806ZM20.6641 6.90182C21.3186 6.30854 22.2903 6.36787 22.9051 6.98092C23.5 7.59397 23.4603 8.58276 22.8852 9.13649C22.8852 9.13649 22.8654 9.13649 22.8654 9.15627C22.2506 9.74954 21.2591 9.74954 20.6245 9.13649C20.0097 8.48389 20.0494 7.51487 20.6641 6.90182ZM15.8055 9.82864C16.4004 9.21559 16.4004 8.2268 15.7857 7.59397C15.1907 7.0007 14.219 6.98092 13.6042 7.57419C12.9894 8.16747 12.93 9.17604 13.5447 9.80887C14.1595 10.3824 15.1312 10.4219 15.8055 9.82864ZM2.06245 8.62232C1.78481 8.34545 1.78481 7.87083 2.10211 7.59397C2.37975 7.27756 2.89536 7.27756 3.19283 7.57419C3.51013 7.89061 3.51013 8.38501 3.19283 8.66187L3.17299 8.68164C2.85569 8.99806 2.37975 8.95851 2.06245 8.62232ZM26.0781 7.81151C26.4152 7.53464 26.8911 7.55442 27.1688 7.87083C27.4464 8.20702 27.3869 8.68164 27.0498 8.95851C26.7721 9.17604 26.316 9.17604 26.0384 8.93873C25.7211 8.62232 25.7211 8.1477 26.0384 7.85106C26.0384 7.85106 26.0384 7.81151 26.0781 7.81151ZM4.26371 11.9051C3.78776 11.4305 3.80759 10.6988 4.26371 10.2242C4.28354 10.2044 4.28354 10.2044 4.28354 10.2044C4.75949 9.74954 5.51308 9.78909 5.98903 10.2242C6.40548 10.6988 6.38565 11.4503 5.9097 11.9051C5.49325 12.3402 4.73966 12.3402 4.26371 11.9051ZM23.1827 10.3428C23.6586 9.88797 24.4122 9.92752 24.8882 10.3626C25.3641 10.7779 25.4236 11.5294 25.0072 12.004C24.5907 12.4786 23.8371 12.5379 23.3612 12.1226C23.3017 12.1029 23.2819 12.0435 23.2025 11.9644C22.7464 11.5096 22.7464 10.7779 23.1827 10.3428ZM22.1713 16.3151C22.7662 15.7219 22.7861 14.7528 22.1911 14.1398C21.5962 13.5267 20.5848 13.4674 19.9502 14.0805C19.3354 14.6935 19.3354 15.7021 19.9304 16.3547C20.5451 16.9282 21.5367 16.9282 22.1713 16.3151ZM8.96371 16.3745C8.30928 16.9677 7.33755 16.9084 6.72278 16.2954C6.12785 15.6823 6.16751 14.6935 6.74261 14.1398C6.74261 14.1398 6.74261 14.1398 6.76245 14.12C7.37721 13.5267 8.36878 13.5267 9.00337 14.1398C9.61814 14.7528 9.57848 15.7614 8.96371 16.3745ZM4.22405 17.9368C3.7481 18.3916 3.7481 19.1035 4.20422 19.6177C4.22405 19.6375 4.22405 19.6375 4.22405 19.6375C4.6405 20.1121 5.39409 20.1714 5.9097 19.7561C6.40548 19.3408 6.44515 18.5894 6.02869 18.0752C6.00886 18.0554 5.94937 17.9961 5.9097 17.9565C5.45358 17.5017 4.73966 17.5017 4.22405 17.9368ZM23.1034 19.8155C23.5793 20.2901 24.3329 20.2901 24.8089 19.8155C25.265 19.3408 25.265 18.6091 24.789 18.1345C24.3131 17.6797 23.5793 17.6797 23.1034 18.1543C22.6869 18.6487 22.6869 19.3606 23.1034 19.8155ZM15.2502 22.9796C14.6354 23.5729 13.6439 23.5333 13.0886 22.9598C13.0886 22.9598 13.0886 22.9598 13.0688 22.94C12.4738 22.327 12.4738 21.3382 13.0886 20.7054C13.743 20.1121 14.7346 20.1516 15.3692 20.7647C15.9245 21.3778 15.865 22.3863 15.2502 22.9796ZM6.40548 20.8834C5.81055 21.536 5.85021 22.505 6.46498 23.118C7.05991 23.7113 8.03164 23.7113 8.62658 23.118C8.62658 23.118 8.62658 23.118 8.64641 23.0983C9.26118 22.505 9.30084 21.4964 8.66624 20.8636C8.07131 20.2703 7.05991 20.2703 6.40548 20.8834ZM20.5451 23.2367C21.1996 23.83 22.1713 23.7904 22.7861 23.1774C23.381 22.5841 23.381 21.6151 22.7861 21.0218C22.7861 21.0218 22.7861 21.0218 22.7662 21.002C22.1713 20.389 21.1599 20.3494 20.5253 20.9822C19.9304 21.5755 19.9304 22.5841 20.5451 23.2367ZM1.98312 21.1404C1.70548 21.4173 1.70548 21.8919 1.98312 22.1688C2.26076 22.4852 2.77637 22.505 3.07384 22.1886C3.37131 21.8722 3.41097 21.3975 3.09367 21.1009L3.07384 21.0811C2.77637 20.824 2.26076 20.824 1.98312 21.1404ZM25.9591 22.3863C26.2764 22.6632 26.7523 22.6434 27.0498 22.327C27.3274 22.0501 27.3274 21.5755 27.0498 21.2987C26.7721 20.9822 26.2565 20.9625 25.9591 21.2789C25.6418 21.5557 25.6219 22.0699 25.9392 22.3665C25.9392 22.327 25.9591 22.3665 25.9591 22.3863ZM9.81645 23.4542C9.3405 23.9288 9.3405 24.6803 9.81645 25.1549C10.2726 25.6296 10.9865 25.6493 11.4624 25.2143C11.4823 25.1945 11.4823 25.1945 11.5219 25.1549C11.9781 24.6803 11.9384 23.9486 11.5021 23.5135L11.4823 23.4938C11.0063 23.0389 10.2527 23.0389 9.81645 23.4542ZM17.5705 25.412C18.0266 25.8867 18.7802 25.8867 19.2561 25.4318C19.2759 25.412 19.2759 25.412 19.2759 25.412C19.7519 24.9374 19.7519 24.1859 19.2561 23.7113C18.7802 23.296 18.0464 23.296 17.5705 23.7311C17.154 24.1859 17.1342 24.8979 17.5705 25.412ZM0.0991545 23.652C-0.118989 23.8695 -0.118989 24.265 0.0991545 24.4826C0.317298 24.7397 0.753585 24.7594 0.99156 24.5023C1.24937 24.2848 1.2692 23.8497 1.01139 23.6124C0.793247 23.3553 0.35696 23.3356 0.118986 23.5927C0.138817 23.6124 0.0991545 23.652 0.0991545 23.652ZM28.1603 24.7594C28.3785 24.977 28.7751 24.977 28.9932 24.7594C29.2511 24.5419 29.2709 24.1068 29.0131 23.8695C28.7553 23.6124 28.3586 23.6124 28.1207 23.8695C27.9025 24.1266 27.9025 24.5221 28.1603 24.7594ZM3.47046 24.3441C3.05401 24.8188 3.05401 25.5702 3.49029 26.0251C3.96624 26.4997 4.7 26.4799 5.17595 26.0053C5.6519 25.5307 5.63207 24.799 5.17595 24.3244C4.7 23.8695 3.94641 23.8695 3.47046 24.3441ZM23.9958 26.1437C24.4717 26.559 25.2055 26.559 25.6814 26.124C26.1574 25.6691 26.1574 24.9572 25.7013 24.4826L25.6814 24.4628C25.2253 23.9882 24.4717 23.9882 23.9958 24.443C23.9759 24.4628 23.9759 24.4628 23.9759 24.4628C23.5198 24.8979 23.5198 25.6691 23.9958 26.1437ZM7.25823 26.2822C6.98059 26.5986 6.98059 27.0732 7.27806 27.3698C7.5557 27.6467 8.03164 27.6467 8.30928 27.3698C8.62658 27.093 8.64641 26.5788 8.32911 26.2822C8.05148 25.9658 7.53586 25.946 7.2384 26.2624C7.27806 26.2426 7.25823 26.2822 7.25823 26.2822ZM20.803 27.6269C21.0806 27.9038 21.5565 27.9038 21.8342 27.6269C22.1515 27.3501 22.1713 26.8359 21.854 26.5393C21.5367 26.2228 21.0608 26.2031 20.7236 26.5195L20.7038 26.5393C20.4658 26.8557 20.4857 27.3501 20.803 27.6269ZM27.0895 28.3982C27.3671 28.6751 27.8827 28.6751 28.1207 28.3982C28.3983 28.1213 28.3983 27.6072 28.1207 27.3303C27.843 27.0139 27.3671 26.9941 27.0498 27.271C26.7325 27.5478 26.7127 28.0224 26.9903 28.3389C27.0498 28.3784 27.0895 28.3784 27.0895 28.3982ZM1.22953 27.4292C0.951897 27.706 0.951897 28.1807 1.22953 28.4575C1.50717 28.7344 1.98312 28.7344 2.26076 28.4575C2.57806 28.1807 2.59789 27.6665 2.28059 27.3698C2.00295 27.1128 1.50717 27.1128 1.22953 27.4292ZM4.83882 28.4971C4.62067 28.7146 4.62067 29.1101 4.83882 29.3277C5.05696 29.5847 5.45359 29.6045 5.73122 29.3474C5.98903 29.1299 6.00886 28.7344 5.75105 28.4575C5.73122 28.4377 5.73122 28.4377 5.69156 28.3982C5.49325 28.24 5.09662 28.24 4.83882 28.4971C4.87848 28.4971 4.83882 28.4971 4.83882 28.4971ZM23.3017 29.5254C23.5595 29.7825 23.9561 29.7825 24.1941 29.5254C24.4519 29.2683 24.4519 28.8728 24.1941 28.6355C23.9363 28.3784 23.5397 28.3586 23.262 28.6157L23.2422 28.6355C23.0439 28.8728 23.0439 29.3079 23.3017 29.5254Z" fill="#E1A83F"/>
<path d="M55.0912 12.1423C55.0912 16.7105 51.7794 19.4791 46.2861 19.4791H41.0705V25.8469H38.0562V4.80542H46.2861C51.7595 4.80542 55.0912 7.57404 55.0912 12.1423ZM52.0768 12.1423C52.0768 9.13634 50.054 7.41584 46.2068 7.41584H41.0903V16.8489H46.2068C50.054 16.8489 52.0768 15.1482 52.0768 12.1423Z" fill="#E1A83F"/>
<path d="M68.4573 13.0916H61.6948V15.6426H68.4573V13.0916Z" fill="#E1A83F"/>
<path d="M72.84 23.2365V25.8469H57.5303V4.80542H72.4235V7.41584H60.5446V23.2365H72.84Z" fill="#E1A83F"/>
<path d="M98.6801 7.41584V14.7527H109.27V17.3433H98.6999V25.8469H95.6855V4.80542H110.579V7.41584H98.6801Z" fill="#E1A83F"/>
<path d="M128.15 23.2365V25.8469H112.84V4.80542H127.733V7.41584H115.854V13.8825H126.424V16.4336H115.854V23.2168H128.15V23.2365Z" fill="#E1A83F"/>
<path d="M129.24 15.3262C129.24 9.09679 134 4.56812 140.425 4.56812C143.677 4.56812 146.513 5.67556 148.437 7.85091L146.474 9.74939C144.847 8.02889 142.864 7.25763 140.524 7.25763C135.765 7.25763 132.235 10.6789 132.235 15.346C132.235 20.0131 135.765 23.4343 140.524 23.4343C142.785 23.4739 144.947 22.5642 146.474 20.903L148.437 22.8015C146.513 24.957 143.677 26.104 140.385 26.104C134 26.0843 129.24 21.5358 129.24 15.3262Z" fill="#E1A83F"/>
<path d="M157.5 7.41584H150.261V4.80542H167.713V7.41584H160.474V25.8469H157.5V7.41584Z" fill="#E1A83F"/>
<path d="M187.564 23.2365V25.8469H169.934V23.81L183.201 7.43561H170.132V4.80542H187.167V6.84233L173.959 23.2168L187.564 23.2365Z" fill="#E1A83F"/>
<path d="M88.1298 18.787C91.0847 17.7388 92.7703 15.3855 92.7703 12.1423C92.7703 7.57404 89.4585 4.80542 83.9653 4.80542H75.7353V16.8885H61.6948V19.4396H75.7353V25.8469H78.7497V19.4396H83.9653C84.4214 19.4396 84.8775 19.4 85.294 19.3802L89.8552 25.8469H93.1471L88.1298 18.787ZM83.886 16.8885H78.7695V7.41584H83.886C87.7531 7.41584 89.756 9.13634 89.756 12.1423C89.756 15.1482 87.7332 16.8885 83.886 16.8885Z" fill="#E1A83F"/>
</g>
<defs>
<clipPath id="clip0_925_1348">
<rect width="188" height="30" fill="white"/>
</clipPath>
</defs>
</svg>
