<svg width="144" height="18" viewBox="0 0 144 18" fill="none" xmlns="http://www.w3.org/2000/svg">
<path d="M2.842 5.243V8.47H6.783V9.793H2.842V14H1.197V3.92H7.483V5.243H2.842ZM11.3048 6.748C11.8321 6.748 12.3081 6.83433 12.7328 7.007C13.1621 7.17967 13.5261 7.42467 13.8248 7.742C14.1281 8.05933 14.3614 8.44433 14.5248 8.897C14.6881 9.34967 14.7698 9.85833 14.7698 10.423C14.7698 10.9877 14.6881 11.4963 14.5248 11.949C14.3614 12.4017 14.1281 12.789 13.8248 13.111C13.5261 13.4283 13.1621 13.6733 12.7328 13.846C12.3081 14.0187 11.8321 14.105 11.3048 14.105C10.7728 14.105 10.2921 14.0187 9.86278 13.846C9.43811 13.6733 9.07411 13.4283 8.77078 13.111C8.46745 12.789 8.23411 12.4017 8.07078 11.949C7.90745 11.4963 7.82578 10.9877 7.82578 10.423C7.82578 9.85833 7.90745 9.34967 8.07078 8.897C8.23411 8.44433 8.46745 8.05933 8.77078 7.742C9.07411 7.42467 9.43811 7.17967 9.86278 7.007C10.2921 6.83433 10.7728 6.748 11.3048 6.748ZM11.3048 12.929C11.9488 12.929 12.4271 12.7143 12.7398 12.285C13.0571 11.851 13.2158 11.2327 13.2158 10.43C13.2158 9.62733 13.0571 9.009 12.7398 8.575C12.4271 8.13633 11.9488 7.917 11.3048 7.917C10.6514 7.917 10.1661 8.13633 9.84878 8.575C9.53145 9.009 9.37278 9.62733 9.37278 10.43C9.37278 11.2327 9.53145 11.851 9.84878 12.285C10.1661 12.7143 10.6514 12.929 11.3048 12.929ZM17.7488 3.64V14H16.2438V3.64H17.7488ZM21.1395 3.64V14H19.6345V3.64H21.1395ZM26.0841 6.748C26.6114 6.748 27.0874 6.83433 27.5121 7.007C27.9414 7.17967 28.3054 7.42467 28.6041 7.742C28.9074 8.05933 29.1407 8.44433 29.3041 8.897C29.4674 9.34967 29.5491 9.85833 29.5491 10.423C29.5491 10.9877 29.4674 11.4963 29.3041 11.949C29.1407 12.4017 28.9074 12.789 28.6041 13.111C28.3054 13.4283 27.9414 13.6733 27.5121 13.846C27.0874 14.0187 26.6114 14.105 26.0841 14.105C25.5521 14.105 25.0714 14.0187 24.6421 13.846C24.2174 13.6733 23.8534 13.4283 23.5501 13.111C23.2467 12.789 23.0134 12.4017 22.8501 11.949C22.6867 11.4963 22.6051 10.9877 22.6051 10.423C22.6051 9.85833 22.6867 9.34967 22.8501 8.897C23.0134 8.44433 23.2467 8.05933 23.5501 7.742C23.8534 7.42467 24.2174 7.17967 24.6421 7.007C25.0714 6.83433 25.5521 6.748 26.0841 6.748ZM26.0841 12.929C26.7281 12.929 27.2064 12.7143 27.5191 12.285C27.8364 11.851 27.9951 11.2327 27.9951 10.43C27.9951 9.62733 27.8364 9.009 27.5191 8.575C27.2064 8.13633 26.7281 7.917 26.0841 7.917C25.4307 7.917 24.9454 8.13633 24.6281 8.575C24.3107 9.009 24.1521 9.62733 24.1521 10.43C24.1521 11.2327 24.3107 11.851 24.6281 12.285C24.9454 12.7143 25.4307 12.929 26.0841 12.929ZM40.9168 6.86L38.6278 14H37.4308C37.2908 14 37.1928 13.909 37.1368 13.727L35.7158 9.282C35.6784 9.156 35.6434 9.03 35.6108 8.904C35.5828 8.778 35.5571 8.65433 35.5338 8.533C35.4824 8.785 35.4194 9.037 35.3448 9.289L33.9028 13.727C33.8514 13.909 33.7418 14 33.5738 14H32.4328L30.1438 6.86H31.3338C31.4504 6.86 31.5461 6.89033 31.6208 6.951C31.7001 7.007 31.7514 7.07467 31.7748 7.154L32.9648 11.312C33.0114 11.5033 33.0511 11.69 33.0838 11.872C33.1211 12.0493 33.1538 12.2267 33.1818 12.404C33.2284 12.2267 33.2774 12.0493 33.3288 11.872C33.3801 11.69 33.4338 11.5033 33.4898 11.312L34.8268 7.133C34.8501 7.049 34.8968 6.98133 34.9668 6.93C35.0414 6.874 35.1301 6.846 35.2328 6.846H35.8908C35.9981 6.846 36.0891 6.874 36.1638 6.93C36.2384 6.98133 36.2874 7.049 36.3108 7.133L37.6128 11.312C37.6688 11.5033 37.7201 11.69 37.7668 11.872C37.8181 12.054 37.8648 12.236 37.9068 12.418C37.9394 12.2407 37.9744 12.061 38.0118 11.879C38.0491 11.697 38.0934 11.508 38.1448 11.312L39.3558 7.154C39.3838 7.07 39.4351 7 39.5098 6.944C39.5844 6.888 39.6754 6.86 39.7828 6.86H40.9168ZM54.7202 6.86V14H53.8102C53.6095 14 53.4812 13.9043 53.4252 13.713L53.3132 13.048C53.1639 13.2067 53.0052 13.3513 52.8372 13.482C52.6739 13.6127 52.4989 13.7247 52.3122 13.818C52.1255 13.9113 51.9249 13.9837 51.7102 14.035C51.5002 14.0863 51.2739 14.112 51.0312 14.112C50.6392 14.112 50.2939 14.0467 49.9952 13.916C49.6965 13.7853 49.4445 13.601 49.2392 13.363C49.0385 13.125 48.8869 12.8403 48.7842 12.509C48.6815 12.173 48.6302 11.8043 48.6302 11.403V6.86H50.1352V11.403C50.1352 11.8837 50.2449 12.257 50.4642 12.523C50.6882 12.789 51.0265 12.922 51.4792 12.922C51.8105 12.922 52.1185 12.8473 52.4032 12.698C52.6925 12.544 52.9632 12.334 53.2152 12.068V6.86H54.7202ZM60.8109 8.155C60.7735 8.22033 60.7315 8.267 60.6849 8.295C60.6382 8.323 60.5799 8.337 60.5099 8.337C60.4305 8.337 60.3442 8.31367 60.2509 8.267C60.1575 8.21567 60.0479 8.15967 59.9219 8.099C59.7959 8.03833 59.6465 7.98467 59.4739 7.938C59.3059 7.88667 59.1075 7.861 58.8789 7.861C58.6922 7.861 58.5219 7.88433 58.3679 7.931C58.2185 7.973 58.0902 8.036 57.9829 8.12C57.8802 8.19933 57.8009 8.295 57.7449 8.407C57.6889 8.51433 57.6609 8.631 57.6609 8.757C57.6609 8.925 57.7122 9.065 57.8149 9.177C57.9175 9.289 58.0529 9.387 58.2209 9.471C58.3889 9.55033 58.5802 9.62267 58.7949 9.688C59.0095 9.75333 59.2289 9.82333 59.4529 9.898C59.6769 9.97267 59.8962 10.059 60.1109 10.157C60.3255 10.255 60.5169 10.3763 60.6849 10.521C60.8529 10.661 60.9882 10.8337 61.0909 11.039C61.1935 11.2397 61.2449 11.4847 61.2449 11.774C61.2449 12.11 61.1842 12.4203 61.0629 12.705C60.9415 12.9897 60.7642 13.237 60.5309 13.447C60.2975 13.657 60.0059 13.8203 59.6559 13.937C59.3105 14.0537 58.9139 14.112 58.4659 14.112C58.2185 14.112 57.9782 14.0887 57.7449 14.042C57.5162 14 57.2969 13.9417 57.0869 13.867C56.8815 13.7877 56.6879 13.6943 56.5059 13.587C56.3285 13.4797 56.1699 13.363 56.0299 13.237L56.3799 12.663C56.4219 12.593 56.4732 12.5393 56.5339 12.502C56.5992 12.46 56.6785 12.439 56.7719 12.439C56.8699 12.439 56.9655 12.4717 57.0589 12.537C57.1569 12.5977 57.2689 12.6653 57.3949 12.74C57.5255 12.8147 57.6819 12.8847 57.8639 12.95C58.0459 13.0107 58.2722 13.041 58.5429 13.041C58.7669 13.041 58.9605 13.0153 59.1239 12.964C59.2872 12.908 59.4225 12.8333 59.5299 12.74C59.6372 12.6467 59.7165 12.5417 59.7679 12.425C59.8192 12.3037 59.8449 12.1753 59.8449 12.04C59.8449 11.858 59.7935 11.7087 59.6909 11.592C59.5882 11.4753 59.4505 11.375 59.2779 11.291C59.1099 11.207 58.9162 11.1323 58.6969 11.067C58.4822 11.0017 58.2629 10.9317 58.0389 10.857C57.8149 10.7823 57.5932 10.696 57.3739 10.598C57.1592 10.5 56.9655 10.3763 56.7929 10.227C56.6249 10.073 56.4895 9.88867 56.3869 9.674C56.2842 9.45467 56.2329 9.18867 56.2329 8.876C56.2329 8.59133 56.2889 8.32067 56.4009 8.064C56.5175 7.80733 56.6855 7.581 56.9049 7.385C57.1289 7.189 57.4019 7.035 57.7239 6.923C58.0505 6.80633 58.4262 6.748 58.8509 6.748C59.3315 6.748 59.7679 6.825 60.1599 6.979C60.5519 7.133 60.8809 7.343 61.1469 7.609L60.8109 8.155ZM62.5472 13.132C62.5472 12.9967 62.5705 12.8707 62.6172 12.754C62.6685 12.6327 62.7362 12.5277 62.8202 12.439C62.9089 12.3503 63.0115 12.2803 63.1282 12.229C63.2495 12.1777 63.3779 12.152 63.5132 12.152C63.6485 12.152 63.7745 12.1777 63.8912 12.229C64.0125 12.2803 64.1175 12.3503 64.2062 12.439C64.2949 12.5277 64.3649 12.6327 64.4162 12.754C64.4675 12.8707 64.4932 12.9967 64.4932 13.132C64.4932 13.272 64.4675 13.4003 64.4162 13.517C64.3649 13.6337 64.2949 13.7363 64.2062 13.825C64.1175 13.9137 64.0125 13.9813 63.8912 14.028C63.7745 14.0793 63.6485 14.105 63.5132 14.105C63.3779 14.105 63.2495 14.0793 63.1282 14.028C63.0115 13.9813 62.9089 13.9137 62.8202 13.825C62.7362 13.7363 62.6685 13.6337 62.6172 13.517C62.5705 13.4003 62.5472 13.272 62.5472 13.132ZM62.5472 8.029C62.5472 7.89367 62.5705 7.76767 62.6172 7.651C62.6685 7.52967 62.7362 7.42467 62.8202 7.336C62.9089 7.24733 63.0115 7.17733 63.1282 7.126C63.2495 7.07467 63.3779 7.049 63.5132 7.049C63.6485 7.049 63.7745 7.07467 63.8912 7.126C64.0125 7.17733 64.1175 7.24733 64.2062 7.336C64.2949 7.42467 64.3649 7.52967 64.4162 7.651C64.4675 7.76767 64.4932 7.89367 64.4932 8.029C64.4932 8.169 64.4675 8.29733 64.4162 8.414C64.3649 8.53067 64.2949 8.63333 64.2062 8.722C64.1175 8.81067 64.0125 8.88067 63.8912 8.932C63.7745 8.97867 63.6485 9.002 63.5132 9.002C63.3779 9.002 63.2495 8.97867 63.1282 8.932C63.0115 8.88067 62.9089 8.81067 62.8202 8.722C62.7362 8.63333 62.6685 8.53067 62.6172 8.414C62.5705 8.29733 62.5472 8.169 62.5472 8.029Z" fill="#191A1C"/>
<g clip-path="url(#clip0_933_780)">
<path d="M100.414 10.5428L104.387 15.4285H101.25L97.7143 10.9415V15.4285H95.1428V2.57147H97.7143V10.1315L100.98 6.42853H104.259L100.414 10.5428V10.5428ZM90.1285 6.17147C89.5655 6.1799 89.0129 6.32466 88.5181 6.59335C88.0232 6.86204 87.6009 7.24666 87.2872 7.71427V6.42853H84.8572V15.4285H87.4285V11.2243C87.3948 10.9191 87.4242 10.6103 87.5149 10.317C87.6057 10.0236 87.7558 9.75216 87.956 9.51939C88.1562 9.28662 88.4022 9.09755 88.6786 8.96394C88.955 8.83034 89.256 8.75506 89.5628 8.7428C91.0543 8.7428 91.2857 10.2085 91.2857 11.2243V15.4285H93.8572V10.6585C93.8572 7.83 92.9185 6.17147 90.18 6.17147H90.1285V6.17147ZM113.143 11.1343C113.153 11.3227 113.153 11.5116 113.143 11.7H106.393V11.79C106.502 12.3262 106.799 12.8057 107.231 13.1427C107.662 13.4796 108.199 13.6519 108.746 13.6285C109.179 13.6474 109.613 13.5786 110.019 13.4261C110.426 13.2737 110.797 13.0408 111.111 12.7415L112.821 14.0272C112.279 14.5803 111.628 15.0136 110.908 15.2993C110.188 15.5849 109.417 15.7166 108.643 15.6857C108.002 15.7262 107.36 15.6287 106.76 15.3999C106.16 15.171 105.617 14.816 105.166 14.359C104.715 13.902 104.367 13.3535 104.146 12.7506C103.925 12.1477 103.837 11.5044 103.886 10.8643C103.873 10.2323 103.99 9.60441 104.23 9.01971C104.47 8.435 104.828 7.90603 105.282 7.46576C105.735 7.02548 106.274 6.68334 106.866 6.46067C107.458 6.23799 108.089 6.13954 108.72 6.17147C111.137 6.17147 113.143 7.88147 113.143 11.1343ZM110.751 10.0285C110.742 9.77386 110.681 9.52379 110.572 9.29354C110.462 9.06329 110.307 8.8577 110.116 8.68929C109.925 8.52087 109.701 8.39317 109.459 8.31395C109.217 8.23474 108.961 8.20568 108.707 8.22853C107.577 8.10633 106.553 8.90269 106.393 10.0285H110.751ZM74.5715 2.57147H72V15.4285H79.7143V12.8573H74.5715V2.57147ZM120.857 2.57147H123.429V15.4285H120.999V14.5285C120.69 14.9087 120.297 15.2114 119.85 15.4123C119.404 15.6132 118.916 15.7069 118.427 15.6857C117.83 15.6704 117.241 15.533 116.699 15.282C116.156 15.0309 115.671 14.6716 115.272 14.226C114.874 13.7805 114.57 13.2581 114.381 12.691C114.192 12.124 114.12 11.5242 114.171 10.9285C114.111 10.332 114.175 9.72945 114.36 9.1591C114.545 8.58874 114.846 8.06311 115.245 7.61566C115.644 7.1682 116.132 6.80872 116.678 6.56008C117.223 6.31145 117.815 6.1791 118.414 6.17147C118.861 6.1519 119.307 6.2214 119.726 6.37592C120.146 6.53044 120.53 6.76688 120.857 7.07147V2.57147V2.57147ZM121.05 10.9285C121.09 10.6316 121.067 10.3295 120.981 10.0426C120.894 9.75563 120.748 9.4905 120.55 9.26508C120.353 9.03966 120.109 8.85919 119.836 8.73583C119.563 8.61248 119.267 8.54911 118.967 8.55C117.737 8.6393 116.805 9.69708 116.871 10.9285C116.805 12.16 117.737 13.2179 118.967 13.3072C119.267 13.3081 119.563 13.2447 119.836 13.1214C120.109 12.998 120.353 12.8175 120.55 12.5921C120.748 12.3666 120.894 12.1015 120.981 11.8145C121.067 11.5276 121.09 11.2254 121.05 10.9285V10.9285ZM82.2857 2.31427C81.8722 2.32013 81.4764 2.48267 81.178 2.76908C80.8797 3.05549 80.7012 3.44442 80.6785 3.85734C80.6785 4.74483 81.3981 5.46441 82.2857 5.46441C83.1734 5.46441 83.8927 4.74469 83.8927 3.85734C83.8699 3.44447 83.6914 3.05559 83.3931 2.76922C83.0949 2.48284 82.699 2.3203 82.2856 2.31441L82.2857 2.31427ZM81 15.4285H83.5715V6.42853H81V15.4285ZM144 1.28573V16.7143C144 17.0553 143.865 17.3823 143.623 17.6234C143.382 17.8645 143.055 18 142.714 18H127.286C126.945 18 126.618 17.8645 126.377 17.6234C126.135 17.3823 126 17.0553 126 16.7143V1.28573C126 0.944736 126.135 0.617705 126.377 0.376583C126.618 0.135461 126.945 0 127.286 0L142.714 0C143.055 0 143.382 0.135461 143.623 0.376583C143.865 0.617705 144 0.944736 144 1.28573V1.28573ZM131.143 6.42853H128.571V15.4285H131.143V6.42853ZM131.464 3.8572C131.464 2.96958 130.745 2.25 129.857 2.25C128.97 2.25 128.25 2.96958 128.25 3.8572C128.25 4.74469 128.97 5.46427 129.857 5.46427C130.745 5.46427 131.464 4.74469 131.464 3.8572V3.8572ZM141.429 10.6585C141.429 7.83 140.49 6.17147 137.751 6.17147C137.18 6.17152 136.617 6.31228 136.112 6.58134C135.608 6.85039 135.177 7.23948 134.859 7.71427V6.42853H132.429V15.4285H135V11.2243C134.966 10.9191 134.996 10.6103 135.086 10.317C135.177 10.0236 135.327 9.75216 135.527 9.51939C135.728 9.28662 135.974 9.09755 136.25 8.96394C136.527 8.83034 136.827 8.75506 137.134 8.7428C138.626 8.7428 138.857 10.2085 138.857 11.2243V15.4285H141.429V10.6585Z" fill="#191A1C"/>
</g>
<defs>
<clipPath id="clip0_933_780">
<rect width="72" height="18" fill="white" transform="translate(72)"/>
</clipPath>
</defs>
</svg>
