<svg width="88" height="88" viewBox="0 0 88 88" fill="none" xmlns="http://www.w3.org/2000/svg">
<mask id="mask0_925_1397" style="mask-type:alpha" maskUnits="userSpaceOnUse" x="0" y="0" width="88" height="88">
<rect width="88" height="88" fill="#2C1C00"/>
</mask>
<g mask="url(#mask0_925_1397)">
<path d="M74.1572 48.6751C72.8739 48.6751 71.7739 48.2167 70.8572 47.3001C69.9405 46.3834 69.4822 45.2834 69.4822 44.0001C69.4822 42.7167 69.9405 41.6167 70.8572 40.7001C71.7739 39.7834 72.8739 39.3251 74.1572 39.3251C75.4405 39.3251 76.5405 39.7834 77.4572 40.7001C78.3739 41.6167 78.8322 42.7167 78.8322 44.0001C78.8322 45.2834 78.3739 46.3834 77.4572 47.3001C76.5405 48.2167 75.4405 48.6751 74.1572 48.6751ZM13.842 48.6751C12.5587 48.6751 11.4587 48.2167 10.542 47.3001C9.62533 46.3834 9.16699 45.2834 9.16699 44.0001C9.16699 42.7167 9.62533 41.6167 10.542 40.7001C11.4587 39.7834 12.5587 39.3251 13.842 39.3251C15.1253 39.3251 16.2253 39.7834 17.142 40.7001C18.0587 41.6167 18.517 42.7167 18.517 44.0001C18.517 45.2834 18.0587 46.3834 17.142 47.3001C16.2253 48.2167 15.1253 48.6751 13.842 48.6751ZM43.9996 78.8327C42.7163 78.8327 41.6163 78.3744 40.6996 77.4577C39.7829 76.541 39.3246 75.441 39.3246 74.1577C39.3246 72.8743 39.7829 71.7743 40.6996 70.8577C41.6163 69.941 42.7163 69.4827 43.9996 69.4827C45.2829 69.4827 46.3829 69.941 47.2996 70.8577C48.2163 71.7743 48.6746 72.8743 48.6746 74.1577C48.6746 75.441 48.2163 76.541 47.2996 77.4577C46.3829 78.3744 45.2829 78.8327 43.9996 78.8327ZM56.6496 33.4577L54.4496 31.1675L67.9246 17.8751L70.1246 20.0751L56.6496 33.4577ZM31.3496 33.3675L17.967 20.0751L20.2572 17.8751L33.5496 31.1675L31.3496 33.3675ZM67.9246 69.9425L54.542 56.6501L56.742 54.3577L70.1246 67.7425L67.9246 69.9425ZM20.0746 70.0327L17.8746 67.7425L31.2572 54.3577L33.4572 56.6501L20.0746 70.0327ZM43.9996 18.5175C42.7163 18.5175 41.6163 18.0591 40.6996 17.1425C39.7829 16.2258 39.3246 15.1258 39.3246 13.8425C39.3246 12.5591 39.7829 11.4591 40.6996 10.5425C41.6163 9.62581 42.7163 9.16748 43.9996 9.16748C45.2829 9.16748 46.3829 9.62581 47.2996 10.5425C48.2163 11.4591 48.6746 12.5591 48.6746 13.8425C48.6746 15.1258 48.2163 16.2258 47.2996 17.1425C46.3829 18.0591 45.2829 18.5175 43.9996 18.5175Z" fill="white"/>
</g>
</svg>
