<svg width="88" height="88" viewBox="0 0 88 88" fill="none" xmlns="http://www.w3.org/2000/svg">
<mask id="mask0_925_1381" style="mask-type:alpha" maskUnits="userSpaceOnUse" x="0" y="0" width="88" height="88">
<rect width="88" height="88" fill="#D9D9D9"/>
</mask>
<g mask="url(#mask0_925_1381)">
<path d="M43.3576 77C38.8975 76.8783 34.6962 75.9462 30.7538 74.2038C26.8129 72.4629 23.3904 70.1103 20.4864 67.1462C17.5839 64.1821 15.2775 60.7141 13.5674 56.7424C11.8558 52.7692 11 48.5217 11 44C11 39.4167 11.8712 35.1237 13.6136 31.1212C15.3545 27.1187 17.7071 23.6353 20.6712 20.6712C23.6353 17.7071 27.1187 15.3545 31.1212 13.6136C35.1237 11.8712 39.4167 11 44 11C52.6167 11 60.0263 13.8417 66.2288 19.525C72.4313 25.2083 75.9609 32.2359 76.8174 40.6076H73.7C73.0884 35.1076 71.148 30.1576 67.8788 25.7576C64.6096 21.3576 60.3775 18.1192 55.1826 16.0424V17.7826C55.1826 19.8609 54.4647 21.6333 53.0288 23.1C51.5929 24.5667 49.8359 25.3 47.7576 25.3H40.2424V32.8174C40.2424 33.8558 39.8757 34.7263 39.1424 35.4288C38.4091 36.1313 37.5225 36.4826 36.4826 36.4826H29.0576V44H36.6674V55.0924H32.8174L14.85 37.2174C14.6667 38.3174 14.4987 39.4328 14.3462 40.5636C14.1937 41.6929 14.1174 42.8384 14.1174 44C14.1174 52.0667 16.9283 59.0179 22.55 64.8538C28.1717 70.6897 35.1076 73.6993 43.3576 73.8826V77ZM77.275 75.8076L64.4424 63.1576C63.3424 63.9525 62.1353 64.5788 60.8212 65.0364C59.5071 65.4955 58.1775 65.725 56.8326 65.725C53.3493 65.725 50.3859 64.5025 47.9424 62.0576C45.4975 59.6141 44.275 56.6507 44.275 53.1674C44.275 49.6841 45.4975 46.7199 47.9424 44.275C50.3859 41.8301 53.3493 40.6076 56.8326 40.6076C60.3159 40.6076 63.2801 41.8301 65.725 44.275C68.1699 46.7199 69.3924 49.6841 69.3924 53.1674C69.3924 54.5725 69.1629 55.9475 68.7038 57.2924C68.2462 58.6359 67.5591 59.8576 66.6424 60.9576L79.475 73.6076L77.275 75.8076ZM56.8326 62.6076C59.4609 62.6076 61.6917 61.6909 63.525 59.8576C65.3583 58.0243 66.275 55.7942 66.275 53.1674C66.275 50.5391 65.3583 48.3083 63.525 46.475C61.6917 44.6417 59.4609 43.725 56.8326 43.725C54.2058 43.725 51.9757 44.6417 50.1424 46.475C48.3091 48.3083 47.3924 50.5391 47.3924 53.1674C47.3924 55.7942 48.3091 58.0243 50.1424 59.8576C51.9757 61.6909 54.2058 62.6076 56.8326 62.6076Z" fill="white"/>
</g>
</svg>
