<svg width="88" height="88" viewBox="0 0 88 88" fill="none" xmlns="http://www.w3.org/2000/svg">
<mask id="mask0_925_1376" style="mask-type:alpha" maskUnits="userSpaceOnUse" x="0" y="0" width="88" height="88">
<rect width="88" height="88" fill="#C4C4C4"/>
</mask>
<g mask="url(#mask0_925_1376)">
<path d="M57.5676 43.8174C52.0676 39.1725 47.4842 34.7725 43.8176 30.6174C40.1509 26.4609 38.3176 22.6718 38.3176 19.25C38.3176 16.6218 39.2188 14.391 41.0214 12.5576C42.8239 10.7243 45.0694 9.80762 47.7578 9.80762C49.4078 9.80762 51.0886 10.2968 52.8002 11.275C54.5118 12.2533 56.1009 13.72 57.5676 15.675C59.0342 13.72 60.6226 12.2533 62.3328 11.275C64.0444 10.2968 65.7252 9.80762 67.3752 9.80762C70.0636 9.80762 72.3098 10.7243 74.1138 12.5576C75.9163 14.391 76.8176 16.6218 76.8176 19.25C76.8176 22.6718 74.9842 26.4609 71.3176 30.6174C67.6509 34.7725 63.0676 39.1725 57.5676 43.8174ZM57.5676 39.5076C61.8444 35.9026 65.6174 32.3122 68.8866 28.7364C72.1572 25.1622 73.7926 21.9692 73.7926 19.1576C73.7926 17.3859 73.1964 15.9046 72.004 14.7136C70.813 13.5212 69.3009 12.925 67.4676 12.925C66.3676 12.925 65.1906 13.2308 63.9366 13.8424C62.684 14.4525 61.2944 15.766 59.7676 17.7826L57.5676 20.625L55.2752 17.7826C53.8085 15.766 52.4335 14.4525 51.1502 13.8424C49.8668 13.2308 48.736 12.925 47.7578 12.925C45.8643 12.925 44.3368 13.5212 43.1752 14.7136C42.0136 15.9046 41.4328 17.3859 41.4328 19.1576C41.4328 21.9692 43.0527 25.1622 46.2926 28.7364C49.531 32.3122 53.2893 35.9026 57.5676 39.5076ZM50.2328 77.1826L21.4502 68.75V73.5174H7.51758V44.9174H30.6176L52.8926 53.1674C54.1759 53.5942 55.2605 54.3884 56.1464 55.55C57.0322 56.7116 57.4752 58.3616 57.4752 60.5H69.4828C71.4994 60.5 73.0431 61.2334 74.1138 62.7C75.183 64.1667 75.7176 66.1833 75.7176 68.75V69.3L50.2328 77.1826ZM10.5426 70.4H18.3328V48.0326H10.5426V70.4ZM49.9578 73.975L72.5078 67.1C72.386 66 72.0656 65.1442 71.5464 64.5326C71.0272 63.9225 70.3393 63.6174 69.4828 63.6174H51.7926C50.2027 63.6174 48.5828 63.495 46.9328 63.25C45.2828 63.0051 43.8469 62.6993 42.6252 62.3326L35.2002 59.95L36.4828 56.8326L43.1752 59.2174C44.5802 59.7058 46.0469 60.0417 47.5752 60.225C49.1034 60.4084 51.3342 60.5 54.2676 60.5C54.2676 59.3384 54.0688 58.391 53.6714 57.6576C53.2739 56.9243 52.6777 56.4051 51.8828 56.1L30.1578 48.0326H21.4502V65.45L49.9578 73.975Z" fill="white"/>
</g>
</svg>
