<svg width="24" height="24" viewBox="0 0 24 24" fill="none" xmlns="http://www.w3.org/2000/svg">
<mask id="mask0_925_724" style="mask-type:alpha" maskUnits="userSpaceOnUse" x="0" y="0" width="24" height="24">
<rect width="24" height="24" fill="#D9D9D9"/>
</mask>
<g mask="url(#mask0_925_724)">
<path d="M12.5 19C11.7283 19 11.0772 18.6989 10.5466 18.0967C10.0161 17.4945 9.7508 16.7555 9.7508 15.8796C9.7508 15.0219 10.0161 14.2872 10.5466 13.6755C11.0772 13.0646 11.7283 12.7591 12.5 12.7591C13.2717 12.7591 13.9228 13.0646 14.4534 13.6755C14.9839 14.2872 15.2492 15.0219 15.2492 15.8796C15.2492 16.7555 14.9839 17.4945 14.4534 18.0967C13.9228 18.6989 13.2717 19 12.5 19ZM12.5 17.9051C12.9984 17.9051 13.4203 17.7091 13.7656 17.3172C14.1116 16.9245 14.2846 16.4453 14.2846 15.8796C14.2846 15.3139 14.1116 14.8347 13.7656 14.442C13.4203 14.05 12.9984 13.854 12.5 13.854C12.0016 13.854 11.5797 14.05 11.2344 14.442C10.8884 14.8347 10.7154 15.3139 10.7154 15.8796C10.7154 16.4453 10.8884 16.9245 11.2344 17.3172C11.5797 17.7091 12.0016 17.9051 12.5 17.9051ZM5.69936 8.29745L5 7.50365C5.96463 6.42701 7.07814 5.57372 8.34051 4.9438C9.60225 4.3146 10.9887 4 12.5 4C14.0113 4 15.3977 4.3146 16.6595 4.9438C17.9219 5.57372 19.0354 6.42701 20 7.50365L19.3006 8.29745C18.4003 7.2938 17.3675 6.50912 16.2023 5.94343C15.0363 5.37774 13.8023 5.09489 12.5 5.09489C11.1977 5.09489 9.96399 5.37774 8.79871 5.94343C7.6328 6.50912 6.59968 7.2938 5.69936 8.29745ZM16.5514 11.3358C15.9727 10.7153 15.3537 10.25 14.6945 9.93978C14.0354 9.62956 13.3039 9.47445 12.5 9.47445C11.6961 9.47445 10.9688 9.62956 10.318 9.93978C9.66656 10.25 9.04341 10.7153 8.44855 11.3358L7.7492 10.5693C8.44051 9.85767 9.18006 9.31496 9.96785 8.94124C10.7556 8.56679 11.5997 8.37956 12.5 8.37956C13.4003 8.37956 14.2444 8.56679 15.0322 8.94124C15.8199 9.31496 16.5595 9.85767 17.2508 10.5693L16.5514 11.3358Z" fill="#E1A83F"/>
</g>
</svg>
